<svg xmlns="http://www.w3.org/2000/svg" xmlns:xlink="http://www.w3.org/1999/xlink" width="147.068" height="40" viewBox="0 0 147.068 40">
  <defs>
    <clipPath id="clip-path">
      <rect id="사각형_23" data-name="사각형 23" width="147.068" height="40" fill="none"/>
    </clipPath>
  </defs>
  <g id="그룹_1" data-name="그룹 1" clip-path="url(#clip-path)">
    <path id="패스_1" data-name="패스 1" d="M.542,31.511c-.183.379,1.846,4.225,5.473,5.282s7.516-1.619,7.516-1.619,1.912-1.55-1.319-8.1S7.993,19.256,8.388,15.736A18.983,18.983,0,0,1,22.168.664c10.088-2.887,14.9,4.578,14.9,4.578a1.5,1.5,0,0,1-.4,1.267c-.524.436-1.846-.281-1.846-.281s-1.781-3.945-5.209-4.086-4.883,3.015-5.143,3.381-.461,5.352,3.429,10.493,2.044,12.325.857,13.452-6.531,6.606-6.528,7.042,2.9-4.225,1.912-8.38-5.34-9.61-5.34-9.61,2.676,6.632,2.9,9.821-2.434,10.071-5.8,10.352A92,92,0,0,1,5.38,38.388c1.255.313-3.386-.877-4.838-3a3.883,3.883,0,0,1,0-3.873" transform="translate(0 0)" fill="#6aae27"/>
    <path id="패스_2" data-name="패스 2" d="M34.017,13.507c0-1.907,1.54-2.766,3.115-2.766a2.729,2.729,0,0,1,2.976,2.766V36.2a2.723,2.723,0,0,1-2.976,2.879A2.826,2.826,0,0,1,34.017,36.2Z" transform="translate(0 0.732)" fill="#362f2d"/>
    <path id="패스_3" data-name="패스 3" d="M65.484,20.873c-.806,1.234-1.61,2.542-2.415,4-.841,1.458-1.646,2.766-2.381,3.964a2.542,2.542,0,0,1-2.275,1.2,2.478,2.478,0,0,1-2.2-1.235l-4.726-8.112V36.2a2.741,2.741,0,0,1-3.01,2.879A2.771,2.771,0,0,1,45.426,36.2V13.545a2.819,2.819,0,0,1,3.046-2.8c1.925,0,3.01.374,4.271,2.467l5.67,9.5,5.881-9.5c1.155-1.832,2.135-2.467,4.2-2.467a2.736,2.736,0,0,1,3.011,2.8V36.2a3.014,3.014,0,0,1-6.021,0Z" transform="translate(0 0.732)" fill="#362f2d"/>
    <path id="패스_4" data-name="패스 4" d="M82.771,36.2A2.75,2.75,0,0,1,79.8,39.08,2.813,2.813,0,0,1,76.68,36.2V12.722c0-1.308,1.015-1.982,2.521-1.982h8.261c5.95,0,10.921,2.431,10.921,8.787v.223c0,6.356-4.726,8.824-10.64,8.824H82.771Zm4.972-11.889c2.834,0,4.584-1.346,4.584-4.3v-.524c0-2.879-2.17-4.15-5.11-4.15H82.771v8.973Z" transform="translate(0 0.732)" fill="#362f2d"/>
    <path id="패스_5" data-name="패스 5" d="M101.95,30.407c-.035-1.794-.07-3.589-.07-5.383,0-1.757.035-3.589.07-5.458.106-6.469,4.655-8.825,10.676-8.825,5.846,0,10.361,2.618,10.642,8.825.139,3.589.105,7.439,0,10.841-.106,6.244-4.726,8.861-10.642,8.861-6.16,0-10.57-2.393-10.676-8.861M112.626,15.34c-3.045,0-4.725,1.383-4.83,4.262-.07,3.627-.07,7.216,0,10.805.105,2.954,1.785,4.225,4.83,4.225,2.836,0,4.656-1.422,4.831-4.263.245-3.551.1-7.028,0-10.8-.105-2.88-1.925-4.225-4.831-4.225" transform="translate(0 0.732)" fill="#362f2d"/>
    <path id="패스_6" data-name="패스 6" d="M128.306,13.507c0-1.907,1.505-2.766,3.08-2.766a2.677,2.677,0,0,1,2.976,2.766v20.9h10.081c1.96,0,2.625,1.084,2.625,2.393,0,1.048-.56,2.28-2.625,2.28H131.176c-1.785,0-2.87-.935-2.87-2.58Z" transform="translate(0 0.732)" fill="#362f2d"/>
    <path id="패스_10" data-name="패스 10" d="M.542,31.511c-.183.379,1.846,4.225,5.473,5.282s7.516-1.619,7.516-1.619,1.912-1.55-1.319-8.1S7.993,19.256,8.388,15.736A18.983,18.983,0,0,1,22.168.664c10.088-2.887,14.9,4.578,14.9,4.578a1.5,1.5,0,0,1-.4,1.267c-.524.436-1.846-.281-1.846-.281s-1.781-3.945-5.209-4.086-4.883,3.015-5.143,3.381-.461,5.352,3.429,10.493,2.044,12.325.857,13.452-6.531,6.606-6.528,7.042,2.9-4.225,1.912-8.38-5.34-9.61-5.34-9.61,2.676,6.632,2.9,9.821-2.434,10.071-5.8,10.352A92,92,0,0,1,5.38,38.388c1.255.313-3.386-.877-4.838-3a3.883,3.883,0,0,1,0-3.873" fill="#6aae27"/>
  </g>
</svg>
