<svg width="138" height="53" viewBox="0 0 138 53" fill="none" xmlns="http://www.w3.org/2000/svg">
<g clip-path="url(#clip0_46_2037)">
<path d="M28.411 34.1055C25.8987 34.1088 23.8306 36.067 23.8306 38.5172C23.8306 40.9674 25.8987 42.9058 28.411 42.9124C30.9465 42.9025 32.9981 40.9443 32.9981 38.5172C32.9981 36.0901 30.9465 34.1088 28.411 34.1055ZM28.348 40.9014C27.0356 40.9014 26.0412 39.8315 26.0412 38.5205C26.0412 37.2095 27.1018 36.1165 28.4077 36.1165C29.7136 36.1165 30.7377 37.1831 30.7377 38.5205C30.7377 39.8579 29.6638 40.9014 28.3447 40.9014H28.348Z" fill="white"/>
<path d="M7.3845 31.0681C8.08714 31.7583 8.88922 32.3593 9.67472 32.7489L9.75758 32.7919L11.1098 31.1969L10.9806 31.1243C9.69461 30.4308 8.68704 29.5557 8.0308 28.4495C7.37787 27.3631 7.04312 26.095 7.04312 24.586V23.166H4.62364V24.4341C4.62364 26.0719 4.24911 27.3598 3.5531 28.4891C2.77091 29.7374 1.6142 30.7445 0.132678 31.6757L0.00341797 31.755L1.47499 33.2707L1.55454 33.2245C2.42621 32.7489 3.35424 32.0192 4.16294 31.2068C4.86227 30.4969 5.4688 29.7307 5.83338 29.0076C6.18801 29.7142 6.73488 30.4374 7.38781 31.0582L7.3845 31.0681Z" fill="white"/>
<path d="M4.76953 41.8729H14.9048V34.9746H4.76953V41.8729ZM7.04318 36.9229H12.6213V39.9279H7.04318V36.9229Z" fill="white"/>
<path d="M14.9414 22.7598H12.6909V34.1853H14.9414V29.1297H17.5829V27.0988H14.9414V22.7598Z" fill="white"/>
<path d="M72.419 31.653C73.1581 32.2936 74.0066 32.8319 74.802 33.1786L74.8849 33.2183L76.1013 31.5771L75.972 31.5143C74.812 30.9199 73.7746 30.1869 73.0322 29.2953C72.2732 28.3806 71.8224 27.2809 71.8224 25.9535V25.5638H75.1733V23.5957H66.0687V25.5638H69.4195V26.036C69.4195 27.2413 69.0152 28.3674 68.3523 29.3415C67.5701 30.5105 66.4267 31.4549 65.3197 32.0625L65.1738 32.1417L66.6686 33.6839L66.7515 33.6442C67.5602 33.1885 68.4484 32.4984 69.2107 31.7257C69.8206 31.0884 70.3674 30.4147 70.7022 29.7444C71.1065 30.3949 71.7263 31.0487 72.419 31.6563V31.653Z" fill="white"/>
<path d="M88.7188 36.9692H96.9118V41.8729H99.1888V35.0176H88.7188V36.9692Z" fill="white"/>
<path d="M94.3731 29.1128C94.3731 28.033 93.8892 27.039 93.1667 26.2795H95.4171V24.3345H91.1217V22.1914H88.6823V24.3345H84.2842V26.2795H86.581C85.8817 27.039 85.3912 28.0231 85.3912 29.1128C85.3912 31.5201 87.3831 33.4783 89.8755 33.4849C92.3679 33.4783 94.3731 31.5201 94.3764 29.1128H94.3731ZM87.5621 29.0236C87.5621 27.6895 88.6923 26.5602 89.8722 26.5602C91.0521 26.5602 92.179 27.6961 92.1823 29.0236C92.1823 30.3346 91.0521 31.4672 89.8722 31.4705C88.689 31.4672 87.5621 30.3346 87.5621 29.0236Z" fill="white"/>
<path d="M99.1889 22.7598H96.9385V34.2249H99.1889V29.8495H101.834V27.822H99.1889V22.7598Z" fill="white"/>
<path d="M80.098 22.7598H77.8442V34.2249H80.098V29.1297H82.7395V27.0988H80.098V22.7598Z" fill="white"/>
<path d="M131.315 31.4048H123.699V25.6259H129.502V23.5918H121.418V33.3795H131.315V31.4048Z" fill="white"/>
<path d="M31.1651 26.161H27.6221V28.172H31.1651V34.5849H33.4189V22.7598H31.1651V26.161Z" fill="white"/>
<path d="M25.4378 31.364C26.1404 32.0541 26.959 32.6551 27.7479 33.0613L27.834 33.1108L29.1896 31.5159L29.057 31.4399C27.7711 30.7729 26.7834 29.8978 26.1238 28.8081C25.451 27.7283 25.1163 26.414 25.1163 24.9016V23.168H22.6901V24.7596C22.6901 26.3975 22.3223 27.682 21.6395 28.7916C20.8573 30.0629 19.684 31.0734 18.1992 32.0013L18.0732 32.0806L19.5481 33.6029L19.621 33.5566C20.496 33.0811 21.4009 32.391 22.2062 31.6017C22.9321 30.8786 23.5419 30.0959 23.9065 29.3364C24.2545 30.0233 24.7881 30.73 25.4311 31.364H25.4378Z" fill="white"/>
<path d="M75.2625 34.1055C72.7502 34.1088 70.682 36.067 70.6787 38.5172C70.682 40.9443 72.7502 42.9058 75.2625 42.9124C77.7946 42.9025 79.8495 40.9443 79.8495 38.5172C79.8495 36.0901 77.7946 34.1088 75.2625 34.1055ZM75.1962 40.9014C73.887 40.9014 72.8894 39.8315 72.8894 38.5205C72.8894 37.2095 73.9467 36.1165 75.2625 36.1165C76.5783 36.1165 77.5892 37.1831 77.5925 38.5205C77.5892 39.8315 76.5153 40.9014 75.1962 40.9014Z" fill="white"/>
<path d="M127.01 35.7832H124.729V41.8724H135.388V39.8647H127.01V35.7832Z" fill="white"/>
<path d="M135.335 28.0565V22.7598H133.085V36.8568H135.335V30.0807H138V28.0565H135.335Z" fill="white"/>
<path d="M116.271 27.9244H114.375V23.0834H112.248V41.3808H114.375V30.1269H116.271V41.8728H118.482V22.7598H116.271V27.9244Z" fill="white"/>
<path d="M109.119 30.461C108.612 29.3548 108.403 28.1231 108.403 26.6041V25.8809H110.958V23.8203H103.527V25.8809H106.166V26.6404C106.166 28.0768 105.977 29.2491 105.519 30.3388C104.992 31.587 104.104 32.7164 102.689 33.9184L102.589 34.0108L103.988 35.3912L104.074 35.3251C104.777 34.8067 105.513 34.0571 106.129 33.2844C106.646 32.6305 107.084 31.9569 107.362 31.3625C107.644 31.9404 108.085 32.6041 108.598 33.2249C109.198 33.9514 109.871 34.6416 110.517 35.051L110.607 35.1105L111.783 33.707L111.691 33.6212C110.424 32.5216 109.639 31.5408 109.122 30.4577L109.119 30.461Z" fill="white"/>
<path d="M6.40357 48.4648C5.32308 48.0818 5.12091 47.8242 5.12091 47.3817C5.12091 46.9392 5.43246 46.5892 6.17156 46.5892C6.7118 46.5892 7.07638 46.7642 7.46748 47.0878L7.85194 46.6156C7.39787 46.2557 6.93386 46.041 6.21133 46.041C5.20045 46.041 4.51769 46.5529 4.51769 47.418C4.51769 48.194 4.91542 48.5672 6.07876 48.9866C7.06644 49.3399 7.36804 49.6272 7.36804 50.1225C7.36804 50.6938 6.92061 51.0438 6.20139 51.0438C5.64458 51.0438 5.17394 50.7896 4.76627 50.3999L4.36523 50.8457C4.78947 51.2717 5.44903 51.5887 6.1815 51.5887C7.30839 51.5887 7.97126 50.9348 7.97126 50.0928C7.97126 49.2507 7.60336 48.8908 6.40688 48.4582L6.40357 48.4648Z" fill="white"/>
<path d="M10.4207 47.3926C9.89375 47.3926 9.41317 47.5214 9.05853 47.7129L9.27728 48.1818C9.60871 47.9903 9.95672 47.8714 10.381 47.8714C10.9709 47.8714 11.2626 48.162 11.2626 48.7663V49.2451C11.0239 49.113 10.6594 49.0106 10.2484 49.0106C9.44631 49.0106 8.69727 49.397 8.69727 50.3051C8.69727 51.2792 9.36345 51.593 9.99318 51.593C10.5732 51.593 10.9709 51.3255 11.2593 51.0184V51.5104H11.836V48.6969C11.836 47.7591 11.2891 47.3926 10.4207 47.3926ZM11.2593 50.5197C11.014 50.8566 10.6163 51.1273 10.0926 51.1273C9.59877 51.1273 9.26402 50.8632 9.26402 50.2622C9.26402 49.7569 9.62197 49.4663 10.2152 49.4663C10.7091 49.4663 10.9941 49.5555 11.256 49.7008V50.5164L11.2593 50.5197Z" fill="white"/>
<path d="M17.6526 49.1493V51.5104H18.2326V49.0503C18.2326 47.8714 17.7189 47.3926 16.8903 47.3926C16.234 47.3926 15.9026 47.6964 15.664 48.0827C15.4717 47.6964 15.1237 47.3926 14.5537 47.3926C14.0731 47.3926 13.7317 47.6204 13.5262 47.9705V47.4784H12.9429V51.5137H13.5262V49.1526C13.5262 48.2577 13.8742 47.8912 14.431 47.8912C14.9878 47.8912 15.3027 48.228 15.3027 49.1526V51.5137H15.8827V49.1526C15.8827 48.2577 16.234 47.8912 16.7842 47.8912C17.3709 47.8912 17.6559 48.228 17.6559 49.1526L17.6526 49.1493Z" fill="white"/>
<path d="M20.5524 49.1691C19.8663 48.8587 19.6608 48.7234 19.6608 48.3832C19.6608 48.0926 19.9061 47.8813 20.3336 47.8813C20.7612 47.8813 21.0263 47.9969 21.3412 48.2445L21.666 47.8186C21.3578 47.5643 20.9269 47.3926 20.3668 47.3926C19.6343 47.3926 19.104 47.8054 19.104 48.4196C19.104 49.0668 19.4421 49.3111 20.2541 49.6579C20.97 49.965 21.212 50.1499 21.212 50.4801C21.212 50.8731 20.9501 51.1042 20.3933 51.1042C19.9923 51.1042 19.6144 50.9391 19.2896 50.6584L18.9482 51.0811C19.336 51.3915 19.8199 51.5963 20.3767 51.5963C21.0794 51.5963 21.7654 51.2528 21.7654 50.4603C21.7654 49.7371 21.318 49.5159 20.5524 49.1725V49.1691Z" fill="white"/>
<path d="M25.1496 49.8337C25.1496 50.7187 24.7055 51.0918 24.1487 51.0918C23.4958 51.0918 23.1875 50.7022 23.1875 49.8337V47.476H22.6108V49.9328C22.6108 51.0919 23.171 51.5905 24.0261 51.5905C24.5398 51.5905 24.9143 51.3527 25.1463 51.0159V51.5079H25.7263V47.4727H25.1463V49.8304L25.1496 49.8337Z" fill="white"/>
<path d="M29.8195 51.5104V49.0503C29.8195 47.8879 29.2561 47.3926 28.3976 47.3926C27.8905 47.3926 27.5127 47.627 27.284 47.9705V47.4784H26.7007V51.5137H27.284V49.1526C27.284 48.271 27.7182 47.8912 28.2849 47.8912C28.9312 47.8912 29.2428 48.2842 29.2428 49.1526V51.5137H29.8228L29.8195 51.5104Z" fill="white"/>
<path d="M31.6422 52.5572L31.8278 52.9964C33.3326 52.9468 33.8794 52.3657 33.8794 51.1505V47.4751H33.3027V47.9275C33.0177 47.6039 32.673 47.3926 32.1626 47.3926C31.3108 47.3926 30.6313 48.1257 30.6313 49.5588C30.6313 50.992 31.2743 51.593 32.0864 51.593C32.6332 51.593 33.021 51.3255 33.306 51.0184V51.2264C33.306 52.1642 32.9978 52.5176 31.6455 52.5572H31.6422ZM32.2289 51.0943C31.5892 51.0943 31.2014 50.566 31.2014 49.5522C31.2014 48.4658 31.5329 47.8912 32.2057 47.8912C32.6863 47.8912 33.0773 48.162 33.2994 48.4955V50.5131C33.0144 50.8698 32.6597 51.0943 32.2256 51.0943H32.2289Z" fill="white"/>
<path d="M40.2665 48.7819C40.2665 46.936 39.2225 46.127 37.804 46.127H36.3755V51.5095H37.6946C39.1397 51.5095 40.2665 50.7335 40.2665 48.7786V48.7819ZM36.9787 46.6718H37.7576C39.0005 46.6718 39.6633 47.428 39.6633 48.8017C39.6633 50.3504 38.9375 50.9646 37.7708 50.9646H36.9754V46.6718H36.9787Z" fill="white"/>
<path d="M41.811 47.9763V47.4777H41.231V51.513H41.811V49.1453C41.811 48.3726 42.1258 47.9268 42.6926 47.9268C42.9611 47.9268 43.14 47.9862 43.2991 48.0787L43.4449 47.4975C43.3091 47.4348 43.1135 47.3984 42.8152 47.3984C42.381 47.3984 41.9933 47.656 41.8143 47.9829L41.811 47.9763Z" fill="white"/>
<path d="M46.9086 51.1273L46.6401 50.7113C46.2689 50.9589 45.9905 51.0943 45.5166 51.0943C44.857 51.0943 44.446 50.5495 44.3897 49.6909H47.0909C47.1108 49.5951 47.1174 49.5126 47.1174 49.3739C47.1174 48.2214 46.544 47.3926 45.4867 47.3926C44.5223 47.3926 43.813 48.1884 43.813 49.4696C43.813 51.058 44.7145 51.593 45.4569 51.593C46.0668 51.593 46.4247 51.4311 46.9119 51.1273H46.9086ZM45.4801 47.8879C46.1894 47.8879 46.5308 48.4328 46.5772 49.2187H44.3897C44.456 48.3172 44.8769 47.8879 45.4801 47.8879Z" fill="white"/>
<path d="M49.043 51.593C49.623 51.593 50.024 51.3255 50.3091 51.0184V51.5104H50.8891V48.6969C50.8891 47.7591 50.3422 47.3926 49.4672 47.3926C48.9402 47.3926 48.463 47.5214 48.1083 47.7129L48.3271 48.1818C48.6585 47.9903 49.0065 47.8714 49.4308 47.8714C50.024 47.8714 50.3091 48.162 50.3091 48.7663V49.2451C50.0737 49.113 49.7092 49.0106 49.3048 49.0106C48.4994 49.0106 47.7471 49.397 47.7471 50.3051C47.7471 51.2792 48.4133 51.593 49.043 51.593ZM49.2684 49.4696C49.7589 49.4696 50.0472 49.5588 50.3091 49.7041V50.5197C50.0638 50.8566 49.6694 51.1273 49.149 51.1273C48.6287 51.1273 48.3205 50.8632 48.3205 50.2622C48.3205 49.7569 48.6784 49.4663 49.2717 49.4663L49.2684 49.4696Z" fill="white"/>
<path d="M56.7025 49.1493V51.5104H57.2792V49.0503C57.2792 47.8714 56.7655 47.3926 55.9369 47.3926C55.2806 47.3926 54.9492 47.6964 54.7106 48.0827C54.5183 47.6964 54.1736 47.3926 53.6002 47.3926C53.1197 47.3926 52.7816 47.6204 52.5728 47.9705V47.4784H51.9961V51.5137H52.5728V49.1526C52.5728 48.2577 52.9208 47.8912 53.4776 47.8912C54.0344 47.8912 54.3493 48.228 54.3493 49.1526V51.5137H54.926V49.1526C54.926 48.2577 55.2806 47.8912 55.8308 47.8912C56.4141 47.8912 56.7025 48.228 56.7025 49.1526V49.1493Z" fill="white"/>
<path d="M61.6111 48.4654C60.5306 48.0824 60.3317 47.8281 60.3317 47.3823C60.3317 46.9365 60.64 46.5898 61.3791 46.5898C61.9226 46.5898 62.2839 46.7648 62.675 47.0884L63.0595 46.6195C62.6054 46.2596 62.1414 46.0449 61.4188 46.0449C60.408 46.0449 59.7285 46.5535 59.7285 47.4186C59.7285 48.1946 60.1196 48.5711 61.2896 48.9839C62.2773 49.3405 62.5789 49.6245 62.5789 50.1231C62.5789 50.6911 62.1314 51.0444 61.4122 51.0444C60.8554 51.0444 60.3848 50.7869 59.9738 50.3972L59.5728 50.8397C59.997 51.2723 60.6565 51.586 61.3857 51.586C62.5093 51.586 63.1755 50.9321 63.1755 50.0901C63.1755 49.248 62.8076 48.8881 61.6111 48.4555V48.4654Z" fill="white"/>
<path d="M65.6346 47.8912C66.0423 47.8912 66.3141 48.0365 66.6057 48.3007L66.9537 47.8681C66.6356 47.5907 66.218 47.3926 65.6711 47.3926C64.8226 47.3926 63.9277 48.02 63.9277 49.5159C63.9277 50.9226 64.7398 51.5963 65.6346 51.5963C66.2014 51.5963 66.5958 51.3816 66.9372 51.0349L66.5892 50.6683C66.3141 50.9358 66.0489 51.0976 65.6578 51.0976C64.9386 51.0976 64.5144 50.4603 64.5144 49.4663C64.5144 48.4724 65.0049 47.8912 65.6379 47.8912H65.6346Z" fill="white"/>
<path d="M69.4328 47.3931C68.9257 47.3931 68.5445 47.6276 68.3125 47.971V46.0723H67.7358V51.5143H68.3125V49.1532C68.3125 48.2682 68.7567 47.8918 69.3168 47.8918C69.9664 47.8918 70.2713 48.2814 70.2713 49.1532V51.5143H70.8513V49.0508C70.8513 47.8918 70.2879 47.3931 69.4295 47.3931H69.4328Z" fill="white"/>
<path d="M73.4363 47.3926C72.4519 47.3926 71.6631 48.1257 71.6631 49.4994C71.6631 50.8731 72.4188 51.5963 73.4064 51.5963C74.3941 51.5963 75.1829 50.8368 75.1829 49.4663C75.1829 48.0959 74.4206 47.3926 73.4363 47.3926ZM73.4263 51.0976C72.7237 51.0976 72.2497 50.5462 72.2497 49.4829C72.2497 48.4196 72.7237 47.8912 73.4263 47.8912C74.129 47.8912 74.6029 48.4229 74.6029 49.4829C74.6029 50.5429 74.1257 51.0976 73.4263 51.0976Z" fill="white"/>
<path d="M76.6381 46.0723H76.0581V51.5143H76.6381V46.0723Z" fill="white"/>
<path d="M79.2831 47.3926C78.7595 47.3926 78.2789 47.5247 77.9276 47.7162L78.143 48.1884C78.4744 47.9936 78.8224 47.878 79.2467 47.878C79.84 47.878 80.125 48.1719 80.125 48.7663V49.2484C79.8864 49.113 79.5218 49.0139 79.1174 49.0139C78.312 49.0139 77.563 49.4003 77.563 50.3084C77.563 51.2858 78.2259 51.5963 78.8589 51.5963C79.4389 51.5963 79.84 51.3321 80.125 51.0217V51.5137H80.705V48.7002C80.705 47.7591 80.1581 47.3926 79.2831 47.3926ZM80.125 50.5197C79.8797 50.8566 79.482 51.1273 78.9616 51.1273C78.4711 51.1273 78.1364 50.8632 78.1364 50.2655C78.1364 49.7569 78.4943 49.473 79.0876 49.473C79.5814 49.473 79.8665 49.5588 80.1283 49.7041V50.5197H80.125Z" fill="white"/>
<path d="M82.3886 47.9771V47.4751H81.8086V51.5137H82.3886V49.146C82.3886 48.3766 82.7035 47.9242 83.2669 47.9242C83.5387 47.9242 83.7144 47.9837 83.8768 48.0761L84.0226 47.4916C83.8867 47.4322 83.6911 47.3926 83.3929 47.3926C82.9587 47.3926 82.5709 47.6501 82.3886 47.9771Z" fill="white"/>
<path d="M86.2464 49.1685C85.5571 48.8581 85.3516 48.7195 85.3516 48.3793C85.3516 48.0887 85.6001 47.8774 86.0244 47.8774C86.4486 47.8774 86.7204 47.9963 87.0353 48.2406L87.3601 47.818C87.0485 47.5637 86.621 47.3887 86.0642 47.3887C85.3284 47.3887 84.7981 47.8014 84.7981 48.419C84.7981 49.0662 85.1394 49.3105 85.9515 49.654C86.6674 49.9611 86.9093 50.146 86.9093 50.4762C86.9093 50.8725 86.6442 51.1003 86.094 51.1003C85.6896 51.1003 85.3118 50.9352 84.987 50.6545L84.6489 51.0772C85.0334 51.3876 85.5206 51.5924 86.0774 51.5924C86.7767 51.5924 87.4661 51.2489 87.4661 50.4564C87.4661 49.7299 87.0187 49.512 86.2531 49.1652L86.2464 49.1685Z" fill="white"/>
<path d="M90.1012 47.3931C89.5908 47.3931 89.213 47.6276 88.981 47.971V46.0723H88.4043V51.5143H88.981V49.1532C88.981 48.2682 89.4218 47.8918 89.9852 47.8918C90.6315 47.8918 90.9398 48.2814 90.9398 49.1532V51.5143H91.5198V49.0508C91.5198 47.8918 90.9564 47.3931 90.1012 47.3931Z" fill="white"/>
<path d="M93.2398 47.4746H92.6631V51.5132H93.2398V47.4746Z" fill="white"/>
<path d="M92.9648 45.9297C92.7261 45.9297 92.5405 46.1146 92.5405 46.3491C92.5405 46.5703 92.7261 46.7552 92.9648 46.7552C93.1769 46.7552 93.3658 46.5703 93.3658 46.3491C93.3658 46.1146 93.1769 45.9297 92.9648 45.9297Z" fill="white"/>
<path d="M96.206 47.3926C95.6592 47.3926 95.2714 47.6601 94.9864 47.9705V47.4784H94.4097V52.9997H94.9864V51.0613C95.2714 51.3816 95.6194 51.5963 96.1298 51.5963C96.9783 51.5963 97.6577 50.8566 97.6577 49.43C97.6577 48.0035 97.0147 47.3926 96.206 47.3926ZM96.0834 51.0976C95.6061 51.0976 95.2117 50.8268 94.9864 50.49V48.4757C95.2714 48.1257 95.6293 47.8912 96.0602 47.8912C96.7032 47.8912 97.091 48.4229 97.091 49.4366C97.091 50.5197 96.7595 51.0976 96.0834 51.0976Z" fill="white"/>
<path d="M100.724 46.6757H103.296V46.1309H100.121V51.5134H100.724V49.0038H102.205V48.4622H100.724V46.6757Z" fill="white"/>
<path d="M105.055 47.3926C104.071 47.3926 103.279 48.1257 103.279 49.4994C103.279 50.8731 104.038 51.5963 105.022 51.5963C106.007 51.5963 106.799 50.8368 106.799 49.4663C106.799 48.0959 106.043 47.3926 105.055 47.3926ZM105.039 51.0976C104.336 51.0976 103.865 50.5462 103.865 49.4829C103.865 48.4196 104.336 47.8912 105.039 47.8912C105.741 47.8912 106.222 48.4229 106.222 49.4829C106.222 50.5429 105.745 51.0976 105.039 51.0976Z" fill="white"/>
<path d="M109.997 49.8324C109.997 50.7174 109.56 51.0938 108.996 51.0938C108.347 51.0938 108.039 50.7041 108.039 49.8324V47.4746H107.458V49.9347C107.458 51.0971 108.022 51.5957 108.88 51.5957C109.384 51.5957 109.762 51.3613 109.994 51.0211V51.5132H110.574V47.4746H109.994V49.8324H109.997Z" fill="white"/>
<path d="M113.245 47.3926C112.738 47.3926 112.36 47.627 112.125 47.9705V47.4784H111.545V51.517H112.125V49.1559C112.125 48.271 112.566 47.8945 113.129 47.8945C113.779 47.8945 114.087 48.2842 114.087 49.1559V51.517H114.664V49.0536C114.664 47.8945 114.1 47.3959 113.242 47.3959L113.245 47.3926Z" fill="white"/>
<path d="M118.15 47.9314C117.865 47.6078 117.517 47.3931 117.007 47.3931C116.158 47.3931 115.479 48.1262 115.479 49.5627C115.479 50.9991 116.119 51.5968 116.931 51.5968C117.478 51.5968 117.862 51.3326 118.15 51.0222V51.5143H118.73V46.0723H118.15V47.9347V47.9314ZM118.15 50.5137C117.865 50.867 117.507 51.0982 117.077 51.0982C116.437 51.0982 116.049 50.5698 116.049 49.5528C116.049 48.4663 116.381 47.8918 117.053 47.8918C117.534 47.8918 117.922 48.1592 118.15 48.4994V50.5137Z" fill="white"/>
<path d="M121.186 47.3926C120.659 47.3926 120.182 47.5247 119.827 47.7162L120.043 48.1884C120.378 47.9936 120.726 47.878 121.147 47.878C121.74 47.878 122.025 48.1719 122.025 48.7663V49.2484C121.786 49.113 121.422 49.0139 121.014 49.0139C120.215 49.0139 119.463 49.4003 119.463 50.3084C119.463 51.2858 120.129 51.5963 120.762 51.5963C121.342 51.5963 121.74 51.3321 122.025 51.0217V51.5137H122.605V48.7002C122.605 47.7591 122.058 47.3926 121.186 47.3926ZM122.025 50.5197C121.78 50.8566 121.385 51.1273 120.858 51.1273C120.368 51.1273 120.036 50.8632 120.036 50.2655C120.036 49.7569 120.391 49.473 120.984 49.473C121.478 49.473 121.763 49.5588 122.025 49.7041V50.5197Z" fill="white"/>
<path d="M124.451 46.0723H123.871V47.479H123.371V47.9644H123.871V50.6887C123.871 51.3558 124.143 51.6001 124.647 51.6001C124.952 51.6001 125.167 51.5572 125.392 51.4614L125.432 50.9628C125.247 51.0387 125.094 51.0784 124.859 51.0784C124.551 51.0784 124.451 50.9562 124.451 50.593V47.9644H125.455V47.479H124.451V46.0723Z" fill="white"/>
<path d="M126.768 45.9297C126.529 45.9297 126.34 46.1146 126.34 46.3491C126.34 46.5703 126.529 46.7552 126.768 46.7552C126.987 46.7552 127.172 46.5703 127.172 46.3491C127.172 46.1146 126.987 45.9297 126.768 45.9297Z" fill="white"/>
<path d="M127.043 47.4746H126.466V51.5132H127.043V47.4746Z" fill="white"/>
<path d="M129.695 47.3926C128.71 47.3926 127.921 48.1257 127.921 49.4994C127.921 50.8731 128.677 51.5963 129.665 51.5963C130.652 51.5963 131.438 50.8368 131.438 49.4663C131.438 48.0959 130.682 47.3926 129.695 47.3926ZM129.675 51.0976C128.975 51.0976 128.505 50.5462 128.505 49.4829C128.505 48.4196 128.975 47.8912 129.675 47.8912C130.374 47.8912 130.858 48.4229 130.858 49.4829C130.858 50.5429 130.381 51.0976 129.675 51.0976Z" fill="white"/>
<path d="M133.97 47.3926C133.459 47.3926 133.082 47.627 132.85 47.9705V47.4784H132.27V51.517H132.85V49.1559C132.85 48.271 133.29 47.8945 133.854 47.8945C134.507 47.8945 134.812 48.2842 134.812 49.1559V51.517H135.388V49.0536C135.388 47.8945 134.825 47.3959 133.97 47.3959V47.3926Z" fill="white"/>
<path d="M74.1653 8.95882L69.7141 7.1228L74.1653 5.28679L73.3732 3.38474L68.922 5.22075L70.7681 0.785919L68.859 0L67.0163 4.43483L65.1702 0L63.2644 0.785919L65.1072 5.22075L60.656 3.38474L59.8672 5.28679L64.3151 7.1228L59.8672 8.95882L60.656 10.8609L65.1072 9.02156L63.2644 13.4564L65.1735 14.2456L67.0163 9.81078L68.859 14.2456L70.7681 13.4564L68.922 9.02156L73.3732 10.8609L74.1653 8.95882Z" fill="#3FDDE2"/>
<path d="M45.3532 21.3393H48.3163V13.457H38.1909V16.112H45.3532V21.3393Z" fill="#3FDDE2"/>
<path d="M56.9073 21.3393H59.8671V13.457H49.7417V16.112H56.9073V21.3393Z" fill="#3FDDE2"/>
<path d="M37.7139 25.4147H56.9073V29.4731H59.8671V22.7598H37.7139V25.4147Z" fill="#3FDDE2"/>
<path d="M44.876 41.8724H59.8635V30.8398H44.876V41.8724ZM47.839 33.4948H56.9071V39.2175H47.839V33.4948Z" fill="#3FDDE2"/>
</g>
<defs>
<clipPath id="clip0_46_2037">
<rect width="138" height="53" fill="white"/>
</clipPath>
</defs>
</svg>
