<svg width="175" height="58" viewBox="0 0 175 58" fill="none" xmlns="http://www.w3.org/2000/svg">
<path d="M139.221 14.1689C139.221 14.6618 139.292 15.1726 139.49 15.6566C140.359 17.8074 142.572 19.1338 145.386 18.0136C146.058 17.7447 164.672 10.2435 164.672 10.2435C164.672 10.2435 157.341 28.8307 157.064 29.5207C155.997 32.1824 157.279 34.5932 159.456 35.3998C159.94 35.579 160.442 35.6686 160.935 35.6597C162.718 35.6507 164.287 34.6022 165.057 32.5051C165.174 32.1914 174.342 7.01722 174.539 6.41677C174.655 6.05829 174.87 5.21587 174.87 4.63334C174.87 3.38762 174.413 2.21361 173.526 1.32637C172.657 0.448099 171.492 0 170.264 0C169.664 0 169.18 0.107544 168.445 0.340555C168.006 0.483946 144.374 9.27564 142.357 10.0284C140.341 10.7813 139.221 12.3944 139.23 14.1689" fill="#ED1C24"/>
<path d="M94.9406 28.3649V27.8271H80.6108V31.4926H88.9363C86.7675 38.3575 79.0156 42.3904 79.0156 42.3904L81.0858 45.2851C81.0858 45.2851 94.9406 39.5673 94.9406 28.3559V28.3649Z" fill="#454B52"/>
<path d="M90.4143 52.7048V45.5801H85.333V53.61C85.333 56.1194 87.3315 57.9297 90.0738 57.9297H105.82V54.2732H92.1887C90.952 54.2732 90.4322 53.7803 90.4053 52.7048H90.4143Z" fill="#454B52"/>
<path d="M94.3672 34.5831V38.2486H100.416V47.0851H105.498V27.4404H100.416V34.5831H94.3672Z" fill="#454B52"/>
<path d="M138.154 42.165H143.235V27.2881H138.154V31.9214H132.857V35.5421H138.154V42.165Z" fill="#454B52"/>
<path d="M24.1793 45.3027H4.83984V53.6105C4.83984 56.1198 6.83831 57.9302 9.5806 57.9302H25.3084V46.4319C25.3084 45.8046 24.7976 45.3027 24.1793 45.3027ZM20.2271 54.2737H11.6956C10.4589 54.2737 9.93011 53.7897 9.91219 52.7053V48.9771H20.2271V54.2737Z" fill="#454B52"/>
<path d="M25.6485 27.8802V27.71H4.56152V31.3754H20.3342C20.3342 31.6174 20.3342 31.9221 20.3342 32.2178C20.3342 35.6234 20.1639 37.8639 20.0743 38.778H0V42.4434H30.9269V38.778H24.6C24.9047 37.6309 25.6574 34.0819 25.6574 27.8802H25.6485Z" fill="#454B52"/>
<path d="M57.2294 47.1484C61.4503 46.2253 64.569 43.0618 64.569 39.3156C64.569 37.2992 63.6639 35.453 62.1762 34.0281H67.5712V30.3626H57.2294V26.9033H52.157V30.3626H41.8152V34.0281H47.2101C45.7225 35.453 44.8174 37.2902 44.8174 39.3156C44.8174 43.0707 47.936 46.2253 52.166 47.1484V50.8587H39.2432V54.5241H70.1612V50.8587H57.2383V47.1484H57.2294ZM50.0331 39.1991C50.0331 36.6988 52.1212 34.6554 54.6842 34.6554C57.2473 34.6554 59.3354 36.6898 59.3354 39.1991C59.3354 41.7085 57.2473 43.7429 54.6842 43.7429C52.1212 43.7429 50.0331 41.7085 50.0331 39.1991Z" fill="#454B52"/>
<path d="M128.44 41.8521H133.359C133.153 40.6602 131.352 31.035 126.665 27.7012H120.992L116.628 41.9686H121.727L124.631 31.6982C127.077 34.566 128.269 40.9111 128.431 41.8521H128.44Z" fill="#454B52"/>
<path d="M129.452 54.3992C128.161 54.3992 127.928 54.0676 127.928 52.9743V52.5172H143.244V44.8099C143.244 44.1467 142.76 43.627 142.07 43.627H122.937V47.158H138.378V49.0489H123.071V53.6106C123.071 56.2544 124.971 57.9303 127.812 57.9303H143.575V54.3992H129.452Z" fill="#454B52"/>
</svg>
