<svg width="175" height="58" viewBox="0 0 175 58" fill="none" xmlns="http://www.w3.org/2000/svg">
<path d="M139.22 14.1685C139.22 14.6614 139.292 15.1722 139.489 15.6561C140.358 17.8069 142.572 19.1332 145.386 18.013C146.058 17.7442 164.671 10.2432 164.671 10.2432C164.671 10.2432 157.341 28.8298 157.063 29.5199C155.997 32.1815 157.278 34.5922 159.456 35.3988C159.94 35.578 160.442 35.6676 160.934 35.6586C162.718 35.6497 164.286 34.6012 165.057 32.5041C165.173 32.1905 174.341 7.01702 174.538 6.41658C174.655 6.05812 174.87 5.21571 174.87 4.6332C174.87 3.38753 174.413 2.21354 173.526 1.32633C172.656 0.448085 171.491 0 170.264 0C169.663 0 169.179 0.107541 168.444 0.340545C168.005 0.483932 144.373 9.27537 142.357 10.0282C140.34 10.7809 139.22 12.394 139.229 14.1685" fill="white"/>
<path d="M94.9411 28.3629V27.8252H80.6113V31.4905H88.9367C86.768 38.3552 79.0161 42.388 79.0161 42.388L81.0863 45.2826C81.0863 45.2826 94.9411 39.565 94.9411 28.3539V28.3629Z" fill="white"/>
<path d="M90.4153 52.7027V45.5781H85.334V53.6078C85.334 56.1171 87.3324 57.9274 90.0747 57.9274H105.82V54.271H92.1897C90.953 54.271 90.4332 53.7781 90.4063 52.7027H90.4153Z" fill="white"/>
<path d="M94.3672 34.5829V38.2483H100.416V47.0845H105.498V27.4404H100.416V34.5829H94.3672Z" fill="white"/>
<path d="M138.154 42.1645H143.236V27.2881H138.154V31.9213H132.858V35.5418H138.154V42.1645Z" fill="white"/>
<path d="M24.1792 45.3008H4.83984V53.6083C4.83984 56.1176 6.8383 57.9278 9.58059 57.9278H25.3084V46.43C25.3084 45.8026 24.7976 45.3008 24.1792 45.3008ZM20.2271 54.2715H11.6956C10.4588 54.2715 9.93009 53.7875 9.91217 52.7032V48.9751H20.2271V54.2715Z" fill="white"/>
<path d="M25.6489 27.8793V27.709H4.562V31.3743H20.3346C20.3346 31.6163 20.3346 31.921 20.3346 32.2167C20.3346 35.6222 20.1643 37.8626 20.0747 38.7767H0.000488281V42.442H30.9273V38.7767H24.6004C24.9051 37.6296 25.6579 34.0808 25.6579 27.8793H25.6489Z" fill="white"/>
<path d="M57.2303 47.1468C61.4513 46.2238 64.5699 43.0603 64.5699 39.3143C64.5699 37.2979 63.6648 35.4518 62.1771 34.0269H67.5721V30.3616H57.2303V26.9023H52.158V30.3616H41.8161V34.0269H47.2111C45.7235 35.4518 44.8183 37.289 44.8183 39.3143C44.8183 43.0693 47.937 46.2238 52.1669 47.1468V50.857H39.2441V54.5223H70.162V50.857H57.2393V47.1468H57.2303ZM50.034 39.1978C50.034 36.6975 52.1221 34.6542 54.6852 34.6542C57.2482 34.6542 59.3363 36.6885 59.3363 39.1978C59.3363 41.7071 57.2482 43.7414 54.6852 43.7414C52.1221 43.7414 50.034 41.7071 50.034 39.1978Z" fill="white"/>
<path d="M128.44 41.8507H133.36C133.154 40.6588 131.353 31.034 126.666 27.7002H120.993L116.628 41.9672H121.728L124.631 31.6971C127.078 34.5649 128.27 40.9098 128.431 41.8507H128.44Z" fill="white"/>
<path d="M129.453 54.397C128.162 54.397 127.929 54.0654 127.929 52.9721V52.515H143.245V44.8079C143.245 44.1448 142.761 43.625 142.071 43.625H122.938V47.1559H138.379V49.0468H123.072V53.6083C123.072 56.252 124.972 57.9279 127.813 57.9279H143.576V54.397H129.453Z" fill="white"/>
</svg>
