<svg width="130" height="130" viewBox="0 0 130 130" fill="none" xmlns="http://www.w3.org/2000/svg">
<g clip-path="url(#clip0_130_19)">
<path d="M94.0553 41.5543C93.0581 41.2813 79.0442 37.6806 70.0558 45.038C72.1684 48.5217 73.8874 52.7074 75.2126 57.569C75.3307 58.0239 75.6063 58.4269 75.9606 58.6999L84.634 65.4983C86.8384 67.2272 87.8881 69.9959 87.3633 72.7257C86.6022 76.7164 82.6788 89.7153 64.0199 89.5723C63.7574 89.5723 63.495 89.5463 63.2457 89.4813C60.2933 88.8574 55.1365 88.7534 53.4832 90.5342C52.3023 91.8081 52.9321 94.6289 53.4045 96.2018C53.7719 97.4107 54.428 98.4766 55.4121 99.4775L65.6995 108.941C78.5849 100.413 101.955 81.552 105.904 65.7063C106.534 63.1845 106.534 60.4027 105.917 57.6599C104.815 52.7723 101.823 44.1931 94.0422 41.5413L94.0553 41.5543Z" fill="#F69B28"/>
<path d="M113.357 55.8919C111.914 49.4314 107.78 38.0053 96.4171 34.1967C96.3646 34.1837 96.3253 34.1707 96.2728 34.1577C95.4592 33.9237 77.745 28.8931 65.3976 38.8893C62.6814 36.2115 59.5453 34.3006 56.0156 33.1567C44.8753 29.569 33.8007 35.1456 29.4968 38.5903C28.3289 39.5262 27.5548 40.3841 26.4001 41.684C26.1245 41.996 25.8096 42.347 25.4553 42.737C15.7059 53.4221 12.1631 62.6643 14.8924 70.1777C18.6845 80.6158 32.974 82.8127 33.5776 82.9036C33.7351 82.9296 33.9056 82.9426 34.0762 82.9426C39.1937 83.0336 43.3795 81.2268 46.2269 77.7431C53.1157 69.3458 49.914 54.098 49.5335 52.3822C49.0743 50.3543 47.0404 49.0804 44.9934 49.5354C42.9464 49.9904 41.6474 52.0052 42.1067 54.033C42.9333 57.7117 44.2061 68.2799 40.3221 72.9985C39.4692 74.0254 37.9471 75.3903 34.4699 75.4033C32.9609 75.1303 24.1169 73.2714 22.0568 67.6299C20.3772 62.9893 23.5002 56.1389 31.0976 47.7805C31.465 47.3776 31.7931 47.0136 32.0817 46.6886C33.1577 45.4927 33.6301 44.9728 34.2862 44.4528C37.8553 41.593 46.2793 37.9403 53.6799 40.3192C56.8423 41.3331 59.5978 43.3609 61.9203 46.3767C62.0253 46.5456 62.1434 46.7146 62.2877 46.8576C64.6103 50.0294 66.4735 54.215 67.8907 59.3886C68.4418 61.3904 69.6359 63.1973 71.2498 64.4712L79.897 71.2566C78.9522 76.1572 75.5144 81.9417 64.4659 81.9677C62.1434 81.5258 52.7746 80.1349 47.9064 85.3604C45.0328 88.4412 44.4423 92.8088 46.135 98.3594C46.8698 100.764 48.1951 102.935 50.0584 104.807C50.0977 104.846 50.1371 104.885 50.1765 104.911L61.6448 115.479C62.7339 116.48 64.1116 116.987 65.5157 116.987C66.5916 116.987 67.6676 116.688 68.6124 116.077C72.5882 113.516 107.597 90.378 113.318 67.3829C114.223 63.7302 114.249 59.7526 113.383 55.8789L113.357 55.8919ZM105.904 65.7061C101.954 81.5518 78.5848 100.413 65.6994 108.941L55.412 99.4773C54.441 98.4894 53.7849 97.4105 53.4044 96.2016C52.9189 94.6287 52.2891 91.8079 53.4831 90.534C55.1364 88.7532 60.2933 88.8572 63.2456 89.4811C63.508 89.5331 63.7574 89.5721 64.0198 89.5721C82.6788 89.7281 86.6021 76.7292 87.3632 72.7255C87.8881 69.9957 86.8383 67.2139 84.6339 65.4981L75.9605 58.6996C75.6062 58.4267 75.3438 58.0237 75.2126 57.5687C73.8873 52.7071 72.1552 48.5215 70.0558 45.0378C79.0441 37.6674 93.058 41.2811 94.0552 41.554C101.823 44.2058 104.828 52.7851 105.93 57.6727C106.547 60.4155 106.534 63.1973 105.917 65.7191L105.904 65.7061Z" fill="#0F4177"/>
<path d="M59.409 66.9901C61.659 66.464 63.0524 64.2307 62.5214 62.0018C61.9903 59.7729 59.7359 58.3925 57.486 58.9186C55.236 59.4446 53.8426 61.678 54.3736 63.9069C54.9047 66.1358 57.1591 67.5162 59.409 66.9901Z" fill="#0F4177"/>
</g>
<defs>
<clipPath id="clip0_130_19">
<rect width="100" height="85" fill="white" transform="translate(14 32)"/>
</clipPath>
</defs>
</svg>
