<svg width="186" height="37" viewBox="0 0 186 37" fill="none" xmlns="http://www.w3.org/2000/svg">
<g clip-path="url(#clip0_42_33)">
<path d="M34.1733 4.15927C33.7476 4.04045 27.7655 2.47308 23.9287 5.67571C24.8305 7.19215 25.5642 9.01415 26.1299 11.1304C26.1804 11.3284 26.298 11.5038 26.4492 11.6226L30.1516 14.582C31.0926 15.3345 31.5407 16.5398 31.3167 17.728C30.9918 19.4651 29.317 25.1235 21.3521 25.0613C21.2401 25.0613 21.128 25.0499 21.0216 25.0216C19.7613 24.75 17.5601 24.7048 16.8543 25.48C16.3502 26.0345 16.6191 27.2624 16.8207 27.947C16.9775 28.4732 17.2576 28.9372 17.6777 29.3729L22.0691 33.4922C27.5695 29.7803 37.5452 21.57 39.2312 14.6725C39.5001 13.5748 39.5001 12.3639 39.2368 11.17C38.7663 9.04244 37.4892 5.30792 34.1677 4.15362L34.1733 4.15927Z" fill="#F69B28"/>
<path d="M42.4126 10.3999C41.7965 7.58766 40.0321 2.61396 35.1814 0.956065C35.159 0.950407 35.1422 0.944748 35.1198 0.93909C34.7726 0.837239 27.2109 -1.35255 21.9401 2.99873C20.7807 1.83311 19.442 1.00133 17.9353 0.503396C13.1798 -1.05831 8.45238 1.36912 6.61517 2.86859C6.11666 3.27599 5.78619 3.64944 5.29328 4.21528C5.17566 4.35108 5.04123 4.50386 4.88999 4.67361C0.72828 9.32478 -0.784051 13.3479 0.381005 16.6184C1.99976 21.1621 8.0995 22.1183 8.35715 22.1579C8.42437 22.1692 8.49719 22.1749 8.57 22.1749C10.7545 22.2145 12.5413 21.428 13.7567 19.9116C16.6974 16.2563 15.3307 9.61901 15.1682 8.87211C14.9722 7.9894 14.104 7.43488 13.2302 7.63293C12.3564 7.83097 11.8019 8.70802 11.998 9.59072C12.3508 11.192 12.8941 15.7923 11.2362 17.8463C10.8721 18.2933 10.2224 18.8874 8.73804 18.8931C8.0939 18.7742 4.31867 17.9651 3.43928 15.5094C2.72232 13.4893 4.05541 10.5074 7.29852 6.86905C7.45536 6.69364 7.59539 6.53521 7.71861 6.39375C8.17792 5.87318 8.37956 5.64684 8.65962 5.42051C10.1832 4.17567 13.7791 2.58567 16.9382 3.62115C18.2881 4.0625 19.4644 4.94521 20.4558 6.25795C20.5006 6.33151 20.551 6.40506 20.6126 6.46731C21.6041 7.84795 22.3994 9.66994 23.0044 11.922C23.2396 12.7933 23.7493 13.5799 24.4383 14.1344L28.1295 17.088C27.7262 19.2212 26.2587 21.7392 21.5424 21.7505C20.551 21.5581 16.5518 20.9527 14.4737 23.2274C13.247 24.5684 12.995 26.4696 13.7175 28.8857C14.0312 29.9325 14.5969 30.8775 15.3923 31.6923C15.4091 31.7092 15.4259 31.7262 15.4427 31.7375L20.3382 36.3378C20.8031 36.7735 21.3912 36.9941 21.9905 36.9941C22.4498 36.9941 22.9091 36.864 23.3124 36.5981C25.0096 35.4834 39.9537 25.4115 42.3958 15.4019C42.7823 13.8119 42.7935 12.0804 42.4238 10.3942L42.4126 10.3999ZM39.2311 14.6719C37.5452 21.5695 27.5694 29.7797 22.069 33.4916L17.6776 29.3723C17.2631 28.9423 16.983 28.4727 16.8206 27.9464C16.6134 27.2618 16.3445 26.0339 16.8542 25.4794C17.56 24.7042 19.7613 24.7495 21.0215 25.0211C21.1336 25.0437 21.24 25.0607 21.352 25.0607C29.317 25.1286 30.9917 19.4702 31.3166 17.7274C31.5406 16.5392 31.0925 15.3283 30.1515 14.5814L26.4491 11.6221C26.2979 11.5032 26.1859 11.3278 26.1299 11.1298C25.5641 9.01357 24.8248 7.19158 23.9286 5.67514C27.7654 2.46685 33.7475 4.03987 34.1732 4.1587C37.4891 5.313 38.7718 9.04752 39.2423 11.1751C39.5056 12.369 39.5 13.5799 39.2367 14.6776L39.2311 14.6719Z" fill="#0F4177"/>
<path d="M19.3836 15.2307C20.3441 15.0017 20.9389 14.0295 20.7122 13.0593C20.4855 12.0891 19.5232 11.4882 18.5627 11.7172C17.6023 11.9462 17.0075 12.9184 17.2342 13.8886C17.4609 14.8588 18.4232 15.4597 19.3836 15.2307Z" fill="#0F4177"/>
<path d="M70.2509 18.4747C70.5702 18.4916 70.8894 18.5426 71.2143 18.6161C71.5392 18.6897 71.8361 18.8311 72.0993 19.0405C72.3626 19.2498 72.4914 19.5384 72.4914 19.9175C72.4914 20.1043 72.4578 20.3023 72.3906 20.5117C72.3234 20.721 72.2393 20.8681 72.1273 20.9643C71.9761 21.1171 71.7856 21.2246 71.5504 21.2925C71.3151 21.3604 71.0911 21.4057 70.867 21.434C70.643 21.4623 70.4525 21.4736 70.2901 21.4736H70.0269L55.0996 21.5019C54.6683 21.5189 54.2258 21.5189 53.7665 21.5019C53.3072 21.4849 52.9207 21.3434 52.607 21.0775C52.1757 20.755 51.9629 20.4098 51.9629 20.0307C51.9629 19.7648 52.0525 19.4988 52.2261 19.2272C52.4054 18.9556 52.6406 18.7689 52.9431 18.6727C53.3352 18.5426 53.7385 18.4803 54.1474 18.486C54.5563 18.4973 54.9764 18.486 55.4076 18.4747C55.8557 18.4577 56.2422 18.4464 56.5671 18.4464H57.5193C57.8274 18.4464 58.1466 18.4464 58.4883 18.4577C58.8244 18.469 59.2277 18.469 59.6926 18.469V16.8564C58.9084 16.8394 58.1579 16.8224 57.4409 16.8168C56.7239 16.8054 56.1862 16.7941 55.8277 16.7715C55.6037 16.7715 55.3404 16.7602 55.0436 16.7432C54.7467 16.7262 54.461 16.6753 54.1866 16.6017C53.9177 16.5282 53.6713 16.415 53.4584 16.2622C53.2456 16.1095 53.0999 15.9058 53.0271 15.6398C52.9711 15.4305 52.9263 15.272 52.8983 15.1589C52.8703 15.0457 52.8423 14.9438 52.8143 14.8476C52.7863 14.7515 52.7695 14.6496 52.7583 14.5364C52.7471 14.4233 52.7471 14.2535 52.7471 14.0272V11C52.7471 11 52.7471 10.9547 52.7303 10.8019C52.7191 10.6491 52.7303 10.4681 52.7471 10.2474C52.7639 10.0324 52.8087 9.79473 52.8703 9.54011C52.9375 9.28548 53.0271 9.06481 53.1335 8.87242C53.2456 8.6857 53.4304 8.53292 53.6825 8.41975C53.9345 8.30659 54.1866 8.22171 54.4386 8.16513C54.6907 8.10854 54.9203 8.07459 55.1276 8.06893C55.3348 8.05762 55.4637 8.05762 55.5197 8.05762H69.0634C69.4835 8.05762 69.8812 8.13118 70.2509 8.28395C70.5702 8.41409 70.783 8.63477 70.895 8.93466C71.0071 9.23456 71.0519 9.55708 71.0351 9.89658C70.9959 10.2191 70.8838 10.4907 70.6878 10.717C70.4918 10.9434 70.2341 11.1018 69.9148 11.198C69.618 11.2716 69.0914 11.3112 68.3465 11.3112H67.7304C67.6351 11.3112 67.5511 11.2999 67.4783 11.2829H57.5641C57.4689 11.2659 57.3345 11.2602 57.1608 11.2716C56.9816 11.2829 56.8472 11.3168 56.7519 11.3734C56.6959 11.3904 56.6567 11.5036 56.6399 11.7129C56.6231 11.9223 56.6119 12.143 56.6119 12.3806C56.6119 12.6183 56.6119 12.8446 56.6287 13.0596C56.6399 13.2746 56.6511 13.4104 56.6735 13.4727C56.7463 13.6028 56.9088 13.6764 57.1496 13.6877C57.3905 13.699 57.6145 13.6877 57.8218 13.6764H68.1C68.5649 13.6764 68.9906 13.6764 69.3771 13.6877C69.758 13.699 70.1109 13.7782 70.4301 13.931C70.8054 14.1007 71.0575 14.4233 71.1863 14.8929C71.2815 15.3626 71.1863 15.7869 70.9062 16.166C70.6094 16.5452 70.2845 16.7432 69.9428 16.7602C69.5956 16.7771 69.2203 16.7998 68.8058 16.8168C68.6546 16.8168 68.3801 16.8168 67.9824 16.8337C67.5791 16.845 67.131 16.8507 66.6381 16.862C66.1452 16.8733 65.6243 16.8733 65.0866 16.8733H63.6303C63.6471 17.1393 63.6639 17.4165 63.6751 17.7108C63.6863 18.005 63.6919 18.2653 63.6919 18.4916C64.2128 18.4916 64.7729 18.4916 65.3722 18.4803C65.9716 18.469 66.5653 18.469 67.1646 18.469H68.873C69.4163 18.469 69.8812 18.4803 70.2733 18.4973L70.2509 18.4747ZM52.8591 26.7359C52.8591 25.9437 53.0999 25.2873 53.5872 24.7667C54.0746 24.2462 54.7243 23.8444 55.5477 23.5502C56.3711 23.256 57.3345 23.0523 58.4435 22.9391C59.5526 22.8259 60.7456 22.7693 62.0171 22.7693C63.2886 22.7693 64.476 22.809 65.5907 22.8825C66.6997 22.9561 67.6743 23.1315 68.5033 23.4087C69.3323 23.6803 69.9932 24.0821 70.475 24.6083C70.9623 25.1345 71.2031 25.8418 71.2031 26.7302C71.2031 27.6186 70.9623 28.3202 70.475 28.8408C69.9876 29.3613 69.3323 29.7574 68.5033 30.029C67.6743 30.3006 66.6997 30.4817 65.5907 30.5666C64.4816 30.6514 63.2886 30.6967 62.0171 30.6967C60.7456 30.6967 59.5582 30.6514 58.4435 30.5666C57.3345 30.4817 56.3655 30.3006 55.5477 30.029C54.7243 29.7574 54.0746 29.3613 53.5872 28.8408C53.0999 28.3202 52.8591 27.6186 52.8591 26.7302V26.7359ZM67.5063 26.7359C67.5063 26.436 67.3439 26.204 67.0134 26.0399C66.6885 25.8814 66.2572 25.7626 65.7251 25.6891C65.193 25.6155 64.5993 25.5702 63.9495 25.5589C63.2942 25.5476 62.65 25.5476 62.0171 25.5476C61.3842 25.5476 60.7456 25.5476 60.1127 25.5589C59.4797 25.5702 58.9084 25.6098 58.4043 25.6891C57.9002 25.7626 57.4969 25.8814 57.1888 26.0399C56.8808 26.1983 56.7239 26.4303 56.7239 26.7359C56.7239 27.0018 56.8808 27.2112 57.1888 27.3696C57.4969 27.528 57.9002 27.6525 58.4043 27.7374C58.9084 27.8223 59.4797 27.8732 60.1127 27.8902C60.7456 27.9071 61.3842 27.9185 62.0171 27.9185C62.65 27.9185 63.2942 27.9185 63.9495 27.9298C64.6049 27.9411 65.193 27.9185 65.7251 27.8619C66.2572 27.8053 66.6885 27.6921 67.0134 27.5224C67.3383 27.3526 67.5063 27.0867 67.5063 26.7302V26.7359Z" fill="white"/>
<path d="M92.6 27.9805C92.8969 28.0201 93.1601 28.0937 93.3842 28.2068C93.6082 28.32 93.7651 28.5294 93.8603 28.8293C94.0843 29.5083 93.8435 29.9892 93.1321 30.2721C92.9081 30.3683 92.684 30.4249 92.46 30.4419C92.2359 30.4589 92.0231 30.4702 91.8158 30.4702H78.793C78.4177 30.4702 78.0312 30.4702 77.6279 30.4532C77.2246 30.4419 76.8213 30.4306 76.4125 30.4136C76.0204 30.3966 75.6955 30.2552 75.4322 29.9892C75.169 29.7233 75.0234 29.3781 74.9841 28.9424L74.9001 26.962C74.8833 26.7526 74.8833 26.5093 74.9001 26.2264C74.9169 25.9435 75.0122 25.7058 75.1802 25.5191C75.4434 25.2362 75.7907 25.0551 76.2332 24.9816C76.6701 24.908 77.0958 24.8684 77.5103 24.8684H78.8154C79.4203 24.8684 80.2493 24.8684 81.2911 24.8854C82.3386 24.8967 83.6268 24.8967 85.1672 24.8967H90.6732V23.8782H76.3901C76.2388 23.8782 76.0932 23.8612 75.942 23.8216C75.7739 23.782 75.6227 23.7481 75.4939 23.7084C75.365 23.6688 75.253 23.5783 75.1578 23.4255C74.8945 23.0294 74.8329 22.622 74.9617 22.209C75.0178 22.0562 75.1018 21.9374 75.2138 21.8582C75.3258 21.7733 75.4546 21.7054 75.6059 21.6431C75.7571 21.5809 75.9027 21.547 76.0428 21.53C76.1828 21.513 76.306 21.4904 76.4181 21.4734C76.6981 21.4168 76.9894 21.3885 77.2862 21.3885H78.1432C78.4513 21.3885 78.821 21.3885 79.2467 21.3998C79.678 21.4111 80.1765 21.4168 80.7422 21.4168H82.7474C82.7474 21.1509 82.7586 20.9189 82.7755 20.7208C82.7923 20.5228 82.8035 20.2625 82.8035 19.94C82.3722 19.94 81.812 19.94 81.1231 19.9287C80.4341 19.9173 79.7228 19.9117 78.9946 19.9004C78.2665 19.8891 77.5663 19.8777 76.8942 19.8608C76.222 19.8438 75.7011 19.8155 75.3258 19.7759C75.029 19.7363 74.7881 19.6967 74.6145 19.6514C74.4352 19.6061 74.228 19.4647 73.9871 19.2383C73.8583 19.1252 73.7631 18.9724 73.7071 18.7857C73.651 18.5989 73.623 18.4009 73.623 18.1915C73.623 17.7955 73.7463 17.4729 73.9871 17.2296C74.116 17.0768 74.2952 16.9637 74.5192 16.8901C74.7433 16.8166 74.9561 16.76 75.1634 16.7204C75.3706 16.6808 75.5499 16.6638 75.7067 16.6638H92.8353C93.1153 16.6638 93.3842 16.6751 93.6474 16.6921C93.9107 16.7091 94.1628 16.7487 94.4204 16.8052C94.6725 16.8618 94.9021 16.9863 95.1038 17.173C95.311 17.3258 95.4286 17.4956 95.451 17.6823C95.479 17.869 95.4958 18.0784 95.4958 18.3047C95.4958 18.5876 95.4174 18.8423 95.2606 19.0686C95.1038 19.2949 94.8853 19.4534 94.6052 19.5495C94.23 19.7023 93.8435 19.7929 93.4402 19.8212C93.0369 19.8494 92.6448 19.8721 92.2527 19.8891C91.3397 19.9287 90.4155 19.9456 89.4969 19.9456H86.6795C86.6963 20.2286 86.6963 20.4775 86.6795 20.6925C86.6627 20.9076 86.6515 21.1509 86.6515 21.4168H90.9644C91.9167 21.4168 92.6448 21.5639 93.1489 21.8525C93.653 22.1467 93.9051 22.622 93.9051 23.2784V25.2871C93.9051 25.5531 93.8435 25.8134 93.7203 26.068C93.597 26.3226 93.3898 26.5376 93.0929 26.7017C92.8521 26.8545 92.6056 26.9337 92.3648 26.945C92.1239 26.9563 91.8775 26.9563 91.6366 26.9563H78.3617V27.9748H92.6168L92.6 27.9805ZM76.5805 15.0794C76.5245 15.0794 76.4965 15.0625 76.4965 15.0229C76.3116 14.8701 76.1828 14.6494 76.1156 14.3608C76.0484 14.0666 76.0204 13.8176 76.0204 13.6083C76.0036 13.2688 75.9756 12.9293 75.9532 12.5898C75.9308 12.2503 75.9083 11.9221 75.9083 11.5996V10.1567C75.9083 9.68703 75.9532 9.21173 76.0484 8.74209C76.1044 8.44219 76.1996 8.19888 76.3284 8.02348C76.4573 7.84241 76.6645 7.70095 76.9446 7.58778C77.2078 7.49159 77.4655 7.42935 77.7287 7.38974C77.992 7.35013 78.2497 7.31618 78.5129 7.27657C78.8322 7.23696 79.1571 7.23131 79.4931 7.24828C79.8292 7.26526 80.1653 7.27657 80.5014 7.27657H87.5869C87.7942 7.27657 88.0182 7.27657 88.2703 7.2596C88.5223 7.24828 88.8808 7.24828 89.3457 7.24828H89.8386C89.9954 7.24828 90.1635 7.2596 90.3315 7.27657C90.6844 7.29355 91.0485 7.32184 91.4238 7.36145C91.799 7.40106 92.1407 7.49159 92.46 7.64437C92.8353 7.79714 93.0873 8.04611 93.2161 8.39127C93.345 8.74209 93.4234 9.10422 93.4402 9.48333C93.4794 9.91903 93.4794 10.3434 93.4514 10.7678C93.4234 11.1922 93.4066 11.6222 93.4066 12.0522C93.3898 12.4313 93.373 12.8048 93.3674 13.1839C93.3562 13.563 93.3058 13.9365 93.2105 14.3156C93.1545 14.5249 93.0873 14.706 93.0145 14.8701C92.9417 15.0285 92.7904 15.1473 92.5664 15.2209C92.3592 15.2945 92.1463 15.3454 91.9223 15.3624C91.6982 15.3793 91.4854 15.3907 91.2781 15.3907H79.1795C78.9946 15.3907 78.8098 15.3907 78.6305 15.3793C78.4513 15.368 78.2721 15.3567 78.0872 15.3397C77.8464 15.3228 77.5831 15.3114 77.303 15.3114C77.023 15.3114 76.7821 15.2379 76.5749 15.0851L76.5805 15.0794ZM79.2411 11.7693C79.2411 11.8655 79.2411 11.956 79.2579 12.0409C79.2691 12.1258 79.2915 12.188 79.3251 12.2276C79.3643 12.2672 79.4259 12.2899 79.5211 12.2955C79.6164 12.3069 79.706 12.3069 79.8012 12.3069C79.8964 12.3069 80.0085 12.2955 80.1373 12.2786H87.5029C87.7661 12.2955 88.0182 12.3182 88.2591 12.3351C88.4663 12.3521 88.6848 12.3634 88.9144 12.3634C89.1441 12.3634 89.3457 12.3465 89.5193 12.3069C89.7266 12.2899 89.8386 12.239 89.8666 12.1541C89.8946 12.0692 89.9282 11.9391 89.9618 11.7693C89.9786 11.6165 89.9898 11.4468 89.9898 11.2487C89.9898 11.0507 89.9338 10.8753 89.8218 10.7225C89.693 10.5697 89.5025 10.4905 89.2617 10.4849C89.0208 10.4735 88.8136 10.4849 88.6455 10.4962H82.2041C81.812 10.4566 81.42 10.4453 81.0279 10.4566C80.6358 10.4679 80.2325 10.4792 79.8236 10.4962C79.6556 10.4962 79.5323 10.4962 79.4595 10.5075C79.3867 10.5188 79.3307 10.6093 79.2915 10.7791C79.2523 10.9092 79.2355 11.0394 79.2355 11.1639V11.7693H79.2411Z" fill="white"/>
<path d="M115.817 25.2079C115.873 25.2249 115.929 25.2305 115.985 25.2192C116.041 25.2079 116.097 25.2079 116.153 25.2079C116.472 25.2475 116.764 25.3098 117.032 25.3946C117.301 25.4795 117.57 25.6323 117.833 25.8586C118.097 26.1246 118.225 26.4527 118.225 26.8488C118.225 27.0582 118.192 27.2789 118.13 27.5165C118.063 27.7542 117.979 27.9352 117.867 28.071C117.716 28.2238 117.531 28.337 117.307 28.4105C117.083 28.4841 116.87 28.5407 116.663 28.569C116.456 28.5973 116.276 28.6086 116.119 28.6086H100.167C100.072 28.6086 99.9823 28.6086 99.8871 28.6199C99.7919 28.6312 99.7022 28.6369 99.607 28.6369C99.2149 28.6539 98.7948 28.6482 98.3467 28.6199C97.8986 28.5916 97.5178 28.4445 97.1985 28.1842C96.8064 27.8277 96.6104 27.4203 96.6104 26.9677C96.6104 26.6847 96.6944 26.3905 96.8624 26.0906C97.0304 25.7907 97.2545 25.5814 97.5346 25.4682C97.9098 25.3154 98.2963 25.2419 98.694 25.2419C99.0917 25.2419 99.5006 25.2305 99.9151 25.2136H100.055C101.679 25.174 103.349 25.174 105.068 25.2136L105.04 21.3093C104.329 21.3263 103.69 21.3376 103.125 21.3376C102.559 21.3376 102.1 21.3206 101.769 21.281C101.377 21.264 100.946 21.2301 100.481 21.1792C100.016 21.1339 99.6238 20.9868 99.3045 20.7435C99.0973 20.5737 98.9349 20.3361 98.8116 20.0362C98.6884 19.7363 98.5988 19.4307 98.5484 19.1308C98.4924 18.8309 98.4588 18.5593 98.4532 18.3273C98.442 18.0897 98.4364 17.9652 98.4364 17.9426V11.8598C98.4364 11.4807 98.4196 11.1073 98.3915 10.7282C98.3635 10.3491 98.3915 9.97561 98.4588 9.5965C98.5148 9.37017 98.6156 9.1891 98.7556 9.04764C98.8957 8.90618 99.0637 8.79302 99.2597 8.70814C99.4558 8.62327 99.6686 8.56103 99.9039 8.52142C100.139 8.48181 100.358 8.45352 100.559 8.43654C100.727 8.43654 100.906 8.44786 101.091 8.46483C101.276 8.48181 101.455 8.52707 101.623 8.59497C101.791 8.66287 101.937 8.75341 102.055 8.87789C102.178 9.00238 102.256 9.15515 102.296 9.34754C102.312 9.44373 102.318 9.61914 102.307 9.88508C102.296 10.151 102.296 10.4396 102.296 10.7508C102.296 11.062 102.296 11.3563 102.307 11.6279C102.318 11.8995 102.34 12.0749 102.374 12.1484C102.413 12.2446 102.508 12.3069 102.671 12.3351C102.828 12.3634 102.957 12.3861 103.046 12.403C103.477 12.4427 103.814 12.4483 104.054 12.4144C104.295 12.3861 104.631 12.3748 105.063 12.3748L111.476 12.403C111.683 12.42 111.851 12.4144 111.991 12.3917C112.131 12.3634 112.232 12.2446 112.288 12.0409C112.288 11.9447 112.288 11.7806 112.305 11.543C112.316 11.3053 112.316 11.062 112.316 10.8074C112.316 10.5528 112.316 10.3151 112.333 10.1001C112.344 9.88508 112.344 9.73796 112.344 9.6644C112.361 9.3249 112.434 9.05896 112.557 8.86092C112.68 8.66288 112.916 8.52707 113.274 8.44786C113.649 8.35167 114.053 8.32903 114.489 8.37996C114.926 8.42522 115.251 8.55537 115.458 8.75907C115.755 9.08159 115.923 9.44939 115.963 9.86245C116.002 10.2755 116.019 10.8527 116.019 11.5882C116.002 12.0239 115.996 12.5841 116.002 13.2744C116.013 13.9648 116.019 14.6777 116.019 15.4076C116.019 16.1376 116.019 16.8505 116.002 17.5295C115.991 18.2085 115.968 18.763 115.935 19.1987C115.839 20.3474 115.251 21.0094 114.17 21.1792C113.89 21.2188 113.576 21.2357 113.235 21.2357H112.299C111.7 21.2527 111.112 21.264 110.535 21.264H108.827L108.883 25.2249C109.348 25.2249 109.79 25.2249 110.216 25.2136C110.636 25.2023 111.039 25.2023 111.431 25.2023H112.635C113.044 25.2023 113.476 25.2136 113.924 25.2305C114.26 25.2475 114.585 25.2419 114.904 25.2192C115.223 25.1909 115.531 25.1966 115.828 25.2305L115.817 25.2079ZM102.374 17.654C102.447 17.9369 102.648 18.101 102.979 18.1519C103.304 18.1972 103.629 18.2312 103.942 18.2538C103.982 18.2538 104.155 18.2538 104.474 18.2425C104.794 18.2312 105.175 18.2255 105.623 18.2255C106.071 18.2255 106.553 18.2255 107.068 18.2142C107.583 18.2029 108.065 18.2029 108.524 18.2029C108.983 18.2029 109.37 18.2029 109.684 18.2142C110.003 18.2255 110.188 18.2255 110.244 18.2255C110.395 18.2425 110.546 18.2481 110.709 18.2425C110.865 18.2312 111.022 18.2425 111.174 18.2538C111.269 18.2538 111.375 18.2651 111.498 18.2821C111.622 18.2991 111.734 18.2991 111.846 18.2821C111.958 18.2651 112.053 18.2142 112.126 18.1406C112.199 18.0671 112.238 17.9539 112.238 17.8011V16.9128C112.238 16.7147 112.238 16.5167 112.221 16.3186C112.21 16.1206 112.187 15.9565 112.154 15.8207C112.098 15.5944 112.008 15.4699 111.891 15.4416C111.767 15.4133 111.616 15.4076 111.426 15.4303C111.33 15.4303 111.19 15.4303 110.989 15.4416C110.793 15.4529 110.647 15.4416 110.557 15.4303H104.172C104.004 15.4303 103.819 15.4303 103.612 15.419C103.405 15.4076 103.214 15.419 103.035 15.4472C102.856 15.4755 102.704 15.5434 102.576 15.6453C102.447 15.7471 102.368 15.9169 102.352 16.1432V16.9354C102.352 17.1051 102.352 17.2636 102.368 17.405C102.38 17.5465 102.38 17.637 102.38 17.671L102.374 17.654Z" fill="white"/>
<path d="M122.65 25.2077C123.451 25.1907 124.291 25.1794 125.171 25.1794C126.05 25.1794 126.918 25.1907 127.775 25.2077V22.2371C127.086 22.1409 126.38 21.9711 125.663 21.7278C124.946 21.4845 124.291 21.1224 123.703 20.6527C123.115 20.1831 122.633 19.5776 122.258 18.8421C121.883 18.1065 121.698 17.1898 121.698 16.0978C121.698 15.2886 121.821 14.5757 122.062 13.9646C122.303 13.3535 122.639 12.8102 123.07 12.3349H122.342C121.911 12.3349 121.547 12.1765 121.238 11.854C120.93 11.5315 120.774 11.1467 120.774 10.694C120.774 10.2414 120.93 9.85659 121.238 9.53406C121.547 9.21153 121.916 9.0531 122.342 9.0531H127.803V7.89313C127.803 7.70641 127.831 7.51403 127.887 7.31598C127.943 7.11794 128.044 6.94819 128.195 6.80673C128.346 6.66527 128.559 6.54645 128.839 6.45591C129.119 6.35972 129.483 6.31445 129.932 6.31445C130.38 6.31445 130.744 6.35972 131.024 6.45591C131.304 6.5521 131.522 6.67093 131.685 6.80673C131.842 6.94819 131.948 7.11794 131.993 7.31598C132.038 7.51403 132.06 7.70641 132.06 7.89313V9.0531H137.773C138.205 9.0531 138.574 9.21153 138.894 9.53406C139.213 9.85659 139.37 10.2414 139.37 10.694C139.37 11.1467 139.213 11.5315 138.894 11.854C138.574 12.1765 138.205 12.3349 137.773 12.3349H136.541C137.062 12.8442 137.471 13.461 137.756 14.1852C138.048 14.9095 138.154 15.7865 138.081 16.7994C138.009 17.6878 137.779 18.4799 137.392 19.1759C137.012 19.8719 136.513 20.4603 135.897 20.93C135.281 21.3996 134.575 21.7561 133.785 21.9938C132.99 22.2314 132.155 22.3446 131.276 22.3446L131.304 25.2021C131.825 25.2021 132.306 25.2021 132.749 25.1907C133.186 25.1794 133.617 25.1794 134.037 25.1794H135.298C135.718 25.1794 136.171 25.1907 136.659 25.2077C136.995 25.2247 137.32 25.219 137.639 25.1964C137.958 25.1681 138.266 25.1738 138.563 25.2077C138.619 25.2247 138.675 25.2303 138.731 25.219C138.787 25.2077 138.843 25.2077 138.899 25.2077C139.218 25.2473 139.51 25.3096 139.779 25.3944C140.047 25.4793 140.316 25.6321 140.579 25.8584C140.843 26.1244 140.972 26.4525 140.972 26.8486C140.972 27.058 140.938 27.2787 140.876 27.5163C140.809 27.754 140.725 27.935 140.613 28.0708C140.462 28.2236 140.277 28.3368 140.053 28.4103C139.829 28.4839 139.616 28.5405 139.409 28.5688C139.202 28.5971 139.022 28.6084 138.866 28.6084H122.913C122.818 28.6084 122.728 28.6084 122.633 28.6197C122.538 28.631 122.448 28.6367 122.353 28.6367C121.961 28.6536 121.541 28.648 121.093 28.6197C120.645 28.5914 120.264 28.4443 119.945 28.184C119.552 27.8275 119.356 27.4201 119.356 26.9675C119.356 26.6845 119.44 26.3903 119.608 26.0904C119.777 25.7905 120.001 25.5812 120.281 25.468C120.656 25.3152 121.042 25.2417 121.44 25.2417C121.838 25.2417 122.247 25.2303 122.661 25.2134L122.65 25.2077ZM134.553 17.0314C134.625 16.3694 134.564 15.7979 134.357 15.3169C134.149 14.8359 133.847 14.4399 133.449 14.1286C133.046 13.8174 132.57 13.5798 132.021 13.4214C131.472 13.2629 130.895 13.1611 130.296 13.1215C129.775 13.1045 129.237 13.1215 128.682 13.1894C128.134 13.2573 127.624 13.3874 127.159 13.5854C126.694 13.7835 126.296 14.0551 125.971 14.4059C125.647 14.7567 125.445 15.1924 125.367 15.7186C125.255 16.4373 125.305 17.0257 125.523 17.4841C125.736 17.948 126.061 18.3102 126.487 18.5761C126.918 18.8421 127.428 19.0175 128.027 19.1137C128.626 19.2098 129.231 19.2551 129.848 19.2551C130.352 19.2551 130.861 19.2268 131.371 19.1702C131.881 19.1137 132.362 19.0005 132.799 18.8307C133.236 18.661 133.617 18.429 133.931 18.1348C134.25 17.8405 134.452 17.4727 134.547 17.0201L134.553 17.0314Z" fill="white"/>
<path d="M142.843 20.0302C142.579 19.9 142.411 19.6794 142.338 19.3795C142.187 19.0004 142.159 18.6269 142.254 18.2591C142.35 17.8913 142.495 17.5405 142.703 17.1953C142.91 16.8502 143.139 16.5333 143.391 16.2334C143.644 15.9335 143.862 15.6506 144.047 15.3847C144.31 14.9886 144.573 14.6321 144.842 14.3096C145.111 13.987 145.391 13.6193 145.671 13.2062C145.856 12.8837 146.069 12.5498 146.298 12.199C146.534 11.8482 146.668 11.4691 146.702 11.056C146.702 10.7335 146.713 10.4053 146.73 10.0658C146.747 9.7263 146.797 9.42075 146.887 9.14915C146.971 8.87755 147.105 8.65122 147.29 8.47015C147.475 8.28908 147.749 8.19855 148.102 8.19855C148.382 8.19855 148.707 8.2325 149.082 8.29474C149.458 8.36264 149.698 8.54371 149.81 8.84926C149.883 9.01901 149.928 9.21139 149.939 9.42641C149.95 9.64143 149.95 9.8621 149.95 10.0941V10.7561C149.95 10.9711 149.978 11.1692 150.035 11.3333C150.13 11.6558 150.219 11.9274 150.298 12.1537C150.382 12.3801 150.499 12.6234 150.645 12.8893C150.964 13.4552 151.272 13.9418 151.58 14.3492C151.889 14.7566 152.208 15.2206 152.549 15.7525C152.813 16.1485 153.048 16.539 153.261 16.9237C153.474 17.3085 153.631 17.7499 153.726 18.2421C153.799 18.6382 153.765 18.9777 153.614 19.2606C153.462 19.5436 153.255 19.7473 152.986 19.8717C152.718 19.9962 152.426 20.0245 152.118 19.9679C151.81 19.9113 151.547 19.7529 151.323 19.487L148.27 15.3281L145.329 19.0343C145.145 19.2606 144.932 19.47 144.702 19.668C144.472 19.8661 144.22 20.0019 143.957 20.0811C143.75 20.1207 143.554 20.1433 143.358 20.149C143.162 20.1603 142.988 20.115 142.837 20.0189L142.843 20.0302ZM163.091 28.0085C163.186 28.7271 163.063 29.2816 162.727 29.6777C162.503 29.9436 162.262 30.102 161.999 30.1586C161.735 30.2152 161.595 30.2435 161.579 30.2435H147.576C146.808 30.2435 146.147 30.1247 145.587 29.8927C145.027 29.655 144.747 29.3212 144.747 28.8912V24.5908C144.708 24.1777 144.708 23.7534 144.747 23.3177C144.786 22.9216 144.937 22.5991 145.212 22.3558C145.481 22.1124 145.834 21.988 146.265 21.988C146.36 21.988 146.528 21.9993 146.769 22.0163C147.01 22.0332 147.178 22.0615 147.273 22.1011C147.514 22.1747 147.71 22.2879 147.85 22.4293C147.99 22.5708 148.096 22.7405 148.169 22.9386C148.242 23.1366 148.293 23.346 148.309 23.561C148.326 23.776 148.349 23.991 148.365 24.1947C148.365 24.2909 148.365 24.4663 148.377 24.7323C148.388 24.9982 148.393 25.2755 148.405 25.5697C148.416 25.8639 148.421 26.1412 148.433 26.4071C148.444 26.6731 148.455 26.8315 148.477 26.8881C148.533 26.9051 148.69 26.9277 148.937 26.956C149.189 26.9843 149.659 26.9956 150.354 26.9956C150.953 26.9956 151.317 26.9843 151.457 26.9673C151.597 26.9503 151.676 26.939 151.698 26.939H161.836C162.077 27.0126 162.273 27.0918 162.424 27.1767C162.576 27.2616 162.716 27.3747 162.845 27.5162C162.973 27.6576 163.057 27.8217 163.097 28.0141L163.091 28.0085ZM158.47 17.6254V20.1999C158.453 20.4093 158.425 20.6186 158.386 20.8337C158.347 21.0487 158.274 21.2637 158.162 21.4674C157.994 21.7333 157.837 21.9087 157.686 22.0049C157.535 22.1011 157.417 22.1747 157.322 22.2313C157.226 22.2879 157.109 22.3161 156.958 22.3161C156.678 22.3161 156.414 22.2426 156.173 22.0898C155.989 21.9766 155.837 21.8352 155.725 21.6654C155.613 21.4957 155.524 21.3373 155.462 21.1845C155.395 21.0317 155.344 20.8337 155.305 20.5903V15.8656H154.689C154.37 15.8826 154.028 15.8543 153.653 15.7807C153.278 15.7072 152.97 15.4809 152.729 15.1017C152.617 14.915 152.566 14.683 152.572 14.4114C152.583 14.1398 152.605 13.8965 152.639 13.6872C152.695 13.4778 152.796 13.308 152.947 13.1666C153.098 13.0251 153.356 12.9176 153.731 12.8384C153.827 12.7988 154.034 12.7762 154.359 12.7705C154.684 12.7592 154.997 12.7479 155.294 12.7309V9.84513C155.277 9.74894 155.283 9.53958 155.322 9.21139C155.361 8.88321 155.423 8.60029 155.518 8.37396C155.725 7.97787 156.106 7.75154 156.666 7.69495C157.243 7.62139 157.686 7.76285 157.983 8.11933C158.111 8.27211 158.196 8.41356 158.235 8.55502C158.274 8.69648 158.319 8.8436 158.375 8.99072C158.431 9.17744 158.453 9.37549 158.442 9.58484C158.431 9.7942 158.431 9.9979 158.431 10.2073L158.459 17.6197L158.47 17.6254ZM159.73 10.0998V9.47734C159.73 9.26798 159.758 9.06993 159.814 8.88321C159.926 8.56068 160.094 8.27776 160.318 8.03445C160.47 7.84773 160.643 7.71193 160.85 7.63837C161.058 7.56481 161.315 7.54218 161.635 7.58179C162.139 7.65534 162.486 7.90431 162.671 8.31737C162.783 8.54371 162.85 8.81531 162.867 9.12652C162.884 9.43773 162.884 9.64143 162.867 9.73196V20.6243C162.867 20.6243 162.867 20.7092 162.856 20.8223C162.845 20.9355 162.817 21.0713 162.772 21.2354C162.727 21.3938 162.648 21.5636 162.548 21.7333C162.447 21.9031 162.301 22.0445 162.111 22.1577C161.982 22.2313 161.876 22.2879 161.786 22.3105C161.702 22.3388 161.584 22.3558 161.439 22.3558C161.142 22.3558 160.834 22.2596 160.514 22.0728C160.419 21.9993 160.335 21.9144 160.262 21.8182C160.19 21.722 160.111 21.6202 160.038 21.507C159.758 20.9808 159.635 20.398 159.663 19.7642C159.691 19.1305 159.708 18.525 159.708 17.9366V12.1933C159.708 11.6275 159.708 11.1466 159.719 10.7505C159.73 10.3544 159.736 10.1394 159.736 10.0998H159.73Z" fill="white"/>
<path d="M178.439 25.3493C178.679 25.5191 178.853 25.7454 178.954 26.0283C179.055 26.3112 179.099 26.6055 179.077 26.9054C179.055 27.2052 178.982 27.4882 178.842 27.7541C178.702 28.0201 178.5 28.2181 178.237 28.3482C177.828 28.5746 177.397 28.7273 176.949 28.8009C176.501 28.8745 176.064 28.9141 175.632 28.9141H174.484C173.963 28.931 173.386 28.931 172.765 28.9141C172.137 28.8971 171.566 28.8971 171.039 28.9141H170.563C170.244 28.9141 169.913 28.9028 169.572 28.8858C169.225 28.8688 168.883 28.8179 168.536 28.7443C168.188 28.6708 167.869 28.5633 167.572 28.4218C167.275 28.2803 167.029 28.088 166.844 27.839C166.659 27.6126 166.519 27.3184 166.424 26.9506C166.329 26.5828 166.267 26.2207 166.228 25.8586C166.189 25.5021 166.172 25.1909 166.172 24.9249V10.8639C166.172 10.7111 166.183 10.547 166.2 10.366C166.217 10.1849 166.245 10.0095 166.284 9.82843C166.323 9.64736 166.368 9.50025 166.424 9.39274C166.592 9.12679 166.76 8.92875 166.928 8.79861C167.096 8.66847 167.32 8.58359 167.6 8.54398C167.673 8.52701 167.763 8.51569 167.869 8.51569C167.975 8.51569 168.082 8.50437 168.188 8.4874C168.3 8.4874 168.429 8.47608 168.58 8.45911H175.19C175.285 8.45911 175.38 8.45911 175.487 8.47608C175.588 8.4874 175.688 8.47608 175.784 8.45911H175.84C176.024 8.45911 176.204 8.47042 176.372 8.4874C176.54 8.50437 176.708 8.54398 176.876 8.60057C177.044 8.64017 177.212 8.68544 177.38 8.74202C177.548 8.79861 177.699 8.90046 177.828 9.05323C178.052 9.29654 178.192 9.60775 178.248 9.98686C178.287 10.1396 178.31 10.2811 178.315 10.4112C178.327 10.5414 178.315 10.6828 178.271 10.8356C178.215 11.2317 178.058 11.5769 177.811 11.8711C177.559 12.1653 177.217 12.3068 176.786 12.3068H170.009V16.494C170.306 16.511 170.586 16.5223 170.838 16.5223H171.521C171.745 16.5223 171.952 16.511 172.137 16.494H173.762C173.857 16.494 173.946 16.494 174.042 16.5053C174.137 16.5166 174.226 16.5053 174.322 16.494H175.078C175.285 16.494 175.492 16.511 175.705 16.5506C175.918 16.5902 176.12 16.6637 176.304 16.7769C176.585 16.9466 176.764 17.1956 176.837 17.5295C176.909 17.8576 176.932 18.1745 176.893 18.4744C176.893 18.6272 176.893 18.7743 176.876 18.9271C176.865 19.0798 176.814 19.21 176.719 19.3232C176.495 19.6457 176.271 19.8381 176.047 19.9003C175.823 19.9682 175.582 20.0022 175.319 20.0022H173.05C172.938 20.0191 172.798 20.0304 172.63 20.0304H170.754C170.513 20.0304 170.266 20.0191 170.026 20.0022C170.042 20.7547 170.042 21.3545 170.026 21.7959C170.009 22.2372 169.998 22.4692 169.998 22.4918V23.7933C169.998 24.0592 170.014 24.2912 170.054 24.4892C170.093 24.6873 170.126 24.7948 170.166 24.8174C170.294 24.891 170.513 24.9476 170.81 24.9872C171.107 25.0268 171.437 25.0438 171.79 25.0438H171.902C172.221 25.0268 172.585 25.0155 172.994 25.0155C173.403 25.0155 173.767 25.0268 174.086 25.0438H175.638C175.705 25.0438 175.772 25.0324 175.851 25.0155H176.327C176.624 25.0155 176.926 25.0268 177.223 25.0438C177.52 25.0607 177.822 25.1173 178.119 25.2135C178.175 25.2305 178.226 25.2531 178.276 25.2701C178.321 25.2871 178.371 25.3154 178.433 25.355L178.439 25.3493ZM182.219 20.2002C181.956 20.1606 181.614 20.138 181.194 20.1323C180.774 20.121 180.433 20.0983 180.169 20.0644C179.85 20.0474 179.548 19.9739 179.262 19.8494C178.971 19.7249 178.724 19.5608 178.517 19.3514C178.31 19.1421 178.17 18.8931 178.097 18.6045C178.024 18.3103 178.03 17.9878 178.125 17.6256C178.164 17.4729 178.243 17.3144 178.366 17.1447C178.489 16.9749 178.601 16.8448 178.713 16.7486C178.976 16.5619 179.234 16.4374 179.497 16.3808C179.648 16.3638 179.844 16.3525 180.085 16.3525H181.598C181.838 16.3525 182.035 16.3412 182.186 16.3242H182.27V16.2111C182.27 15.9847 182.27 15.798 182.287 15.6452C182.298 15.4924 182.298 15.351 182.298 15.2208C182.298 15.0907 182.298 14.9492 182.287 14.7965C182.275 14.6437 182.27 14.4457 182.27 14.2023C182.27 13.7101 182.27 13.2234 182.253 12.7425C182.236 12.2615 182.253 11.7862 182.27 11.3166V10.9205C182.27 10.6772 182.27 10.4056 182.287 10.117C182.298 9.82277 182.32 9.53419 182.354 9.23996C182.393 8.94573 182.455 8.67412 182.55 8.4195C182.645 8.16487 182.774 7.94985 182.942 7.78576C183.222 7.54245 183.519 7.41797 183.838 7.41797H183.894C184.342 7.43494 184.706 7.57074 184.986 7.82537C185.266 8.08 185.479 8.38555 185.631 8.74202C185.782 9.0985 185.877 9.47195 185.927 9.86238C185.972 10.2471 185.995 10.5923 185.995 10.8979V28.1445C185.995 28.303 185.978 28.4954 185.939 28.7217C185.899 28.948 185.843 29.1744 185.771 29.4007C185.698 29.627 185.575 29.8138 185.406 29.9665C185.278 30.0967 185.087 30.2042 184.846 30.2777C184.606 30.3513 184.381 30.3909 184.174 30.3909C183.967 30.3909 183.76 30.3513 183.547 30.2777C183.334 30.2042 183.16 30.091 183.026 29.9382C182.785 29.6723 182.634 29.4007 182.578 29.1178C182.522 28.8349 182.477 28.535 182.438 28.2124C182.438 28.1559 182.438 28.0993 182.427 28.0427C182.415 27.9861 182.41 27.9182 182.41 27.8446C182.371 27.5447 182.354 27.2222 182.354 26.8827C182.354 26.5432 182.343 26.2037 182.326 25.8642C182.309 25.6549 182.298 25.4568 182.298 25.2588V23.2897C182.298 23.0067 182.298 22.7125 182.287 22.4126C182.275 22.1127 182.27 21.8241 182.27 21.5469V20.5171C182.27 20.4039 182.253 20.302 182.214 20.2059L182.219 20.2002Z" fill="white"/>
</g>
<defs>
<clipPath id="clip0_42_33">
<rect width="186" height="37" fill="white"/>
</clipPath>
</defs>
</svg>
