<svg width="170" height="170" viewBox="0 0 170 170" fill="none" xmlns="http://www.w3.org/2000/svg">
<g clip-path="url(#clip0_158_27)">
<path d="M11.6267 37.5272C11.585 37.1441 11.6963 36.7823 11.9466 36.4418L18.9494 27.0564C19.1998 26.7159 19.5127 26.5173 19.8882 26.4535C20.2637 26.3896 20.6253 26.496 20.987 26.7798C21.3625 27.0706 21.5641 27.404 21.6059 27.7871C21.6476 28.1702 21.5363 28.532 21.286 28.8725L18.7964 32.2067L30.8896 41.5991C31.3277 41.9396 31.5572 42.3085 31.5711 42.7058C31.585 43.103 31.4459 43.5074 31.1399 43.9117C30.8479 44.3019 30.5002 44.5502 30.1038 44.6495C29.7074 44.7488 29.2971 44.6282 28.8729 44.3019L16.7797 34.9095L14.2762 38.2649C14.0259 38.6054 13.713 38.8041 13.3374 38.8679C12.9619 38.9318 12.5934 38.8183 12.2178 38.5274C11.8632 38.2507 11.6615 37.9173 11.6198 37.5342L11.6267 37.5272Z" fill="white"/>
<path d="M46.7452 22.5646C47.0929 24.2316 47.0095 25.7994 46.481 27.2679C45.9525 28.7363 45.0276 30.0061 43.6993 31.0631C42.3433 32.1414 40.8829 32.7657 39.3252 32.9359C37.7605 33.1062 36.2306 32.8224 34.7216 32.0776C33.2125 31.3327 31.8565 30.1764 30.6604 28.6015C29.4504 27.0196 28.6715 25.3738 28.3238 23.6783C27.9691 21.9828 28.0665 20.3796 28.602 18.8615C29.1374 17.3505 30.0832 16.0523 31.4392 14.974C32.7675 13.917 34.2139 13.3211 35.7647 13.1792C37.3155 13.0373 38.8454 13.3566 40.3475 14.1369C41.8495 14.9172 43.2056 16.1019 44.4156 17.6839C45.6256 19.2659 46.4045 20.8975 46.7522 22.5575L46.7452 22.5646ZM36.168 29.091C37.1833 29.6727 38.1847 29.9352 39.1722 29.8784C40.1597 29.8146 41.0846 29.4457 41.9399 28.7647C42.7397 28.1262 43.2821 27.3388 43.5533 26.4024C43.8245 25.466 43.8036 24.4303 43.4907 23.281C43.1778 22.1389 42.5728 20.9755 41.6687 19.7908C40.723 18.5565 39.7564 17.6413 38.748 17.0454C37.7466 16.4495 36.7661 16.18 35.8134 16.2367C34.8607 16.2935 33.9844 16.634 33.1778 17.2724C31.8704 18.3082 31.2098 19.6276 31.1889 21.238C31.168 22.8483 31.8634 24.5792 33.2821 26.4379C34.1861 27.6226 35.1388 28.5022 36.1611 29.091H36.168Z" fill="white"/>
<path d="M46.0564 6.26352C46.2789 5.75275 46.6892 5.36968 47.2733 5.12139L51.8491 3.17055C53.1565 2.61012 54.3943 2.37602 55.5626 2.47534C56.7309 2.57465 57.7532 2.94354 58.6294 3.60328C59.5056 4.26302 60.1732 5.14976 60.6252 6.26352C61.0842 7.37727 61.2302 8.47684 61.0703 9.56222C60.9103 10.6476 60.4444 11.6337 59.6795 12.5204C58.9145 13.4071 57.8783 14.1307 56.564 14.6912L53.0731 16.1738L55.3401 21.7142C55.5557 22.2321 55.5696 22.6719 55.3888 23.0195C55.208 23.3742 54.8881 23.6508 54.4222 23.8424C53.9771 24.0339 53.5529 24.0694 53.1635 23.9488C52.774 23.8282 52.475 23.5161 52.2664 23.0195L46.0633 7.86676C45.8338 7.29924 45.8269 6.76719 46.0564 6.24933V6.26352ZM51.9465 13.4284L55.4096 11.9529C56.4597 11.506 57.1621 10.9101 57.5237 10.151C57.8853 9.39905 57.8644 8.53359 57.4681 7.56172C56.6475 5.55412 55.1384 5.00788 52.9548 5.94429L49.4917 7.41984L51.9534 13.4284H51.9465Z" fill="white"/>
<path d="M132.315 10.6689C132.691 10.6263 133.045 10.7398 133.379 10.9952L142.593 18.1247C142.927 18.38 143.122 18.6993 143.184 19.0824C143.247 19.4654 143.143 19.8343 142.871 20.2032C142.586 20.5863 142.259 20.792 141.884 20.8346C141.508 20.8771 141.154 20.7636 140.82 20.5082L137.544 17.9757L128.365 30.3263C128.031 30.7732 127.67 31.0073 127.28 31.0286C126.891 31.0499 126.494 30.9009 126.098 30.5959C125.709 30.2979 125.472 29.9432 125.375 29.5389C125.277 29.1345 125.389 28.716 125.716 28.2761L134.895 15.9255L131.606 13.3788C131.272 13.1234 131.077 12.8042 131.015 12.4211C130.952 12.038 131.063 11.6621 131.341 11.279C131.613 10.9101 131.939 10.7115 132.315 10.6689Z" fill="white"/>
<path d="M147.051 46.4645C145.424 46.8263 143.88 46.734 142.434 46.202C140.987 45.67 139.743 44.7265 138.706 43.3715C137.649 41.9882 137.031 40.5055 136.864 38.9094C136.69 37.3203 136.968 35.7526 137.698 34.2132C138.421 32.6738 139.555 31.2905 141.099 30.0632C142.649 28.8289 144.256 28.0272 145.918 27.6654C147.58 27.3037 149.152 27.3959 150.64 27.9421C152.128 28.4883 153.394 29.4531 154.458 30.8294C155.494 32.1843 156.085 33.6528 156.224 35.2347C156.363 36.8167 156.057 38.3773 155.292 39.9096C154.527 41.4419 153.373 42.8324 151.822 44.0667C150.271 45.3011 148.679 46.1027 147.044 46.4574L147.051 46.4645ZM140.633 35.6816C140.063 36.7174 139.805 37.746 139.868 38.7533C139.93 39.7607 140.299 40.7042 140.967 41.5767C141.592 42.3925 142.364 42.9388 143.282 43.2154C144.2 43.4921 145.222 43.4637 146.342 43.1445C147.462 42.8253 148.602 42.201 149.757 41.2788C150.967 40.314 151.864 39.3208 152.448 38.2993C153.032 37.2707 153.289 36.2775 153.234 35.3057C153.178 34.3338 152.837 33.4399 152.211 32.617C151.196 31.2905 149.896 30.6165 148.317 30.6024C146.738 30.5882 145.042 31.2976 143.227 32.7447C142.072 33.6669 141.203 34.6459 140.633 35.6816Z" fill="white"/>
<path d="M163.032 45.7336C163.533 45.9606 163.908 46.372 164.152 46.9679L166.071 51.6286C166.62 52.9623 166.85 54.225 166.759 55.4168C166.669 56.6086 166.3 57.6514 165.661 58.5453C165.014 59.4391 164.145 60.1201 163.053 60.5883C161.961 61.0565 160.883 61.2055 159.819 61.0424C158.755 60.8792 157.789 60.4039 156.912 59.6236C156.036 58.8432 155.327 57.7862 154.778 56.4526L153.317 52.8985L147.893 55.2253C147.385 55.4452 146.961 55.4594 146.613 55.2749C146.266 55.0905 145.994 54.7642 145.8 54.296C145.612 53.842 145.577 53.4092 145.695 53.012C145.814 52.6076 146.113 52.3026 146.606 52.0969L161.447 45.7407C162.003 45.5065 162.531 45.4995 163.032 45.7265V45.7336ZM156.022 51.7563L157.476 55.2891C157.914 56.3532 158.505 57.0768 159.242 57.4386C159.979 57.8075 160.828 57.7862 161.78 57.3748C163.748 56.5306 164.277 54.9912 163.359 52.7637L161.905 49.2309L156.022 51.7492V51.7563Z" fill="white"/>
<path d="M158.894 133.72C158.936 134.103 158.831 134.465 158.581 134.806L151.613 144.22C151.363 144.56 151.05 144.759 150.681 144.83C150.306 144.893 149.944 144.787 149.582 144.51C149.207 144.22 149.005 143.886 148.963 143.503C148.922 143.12 149.026 142.758 149.276 142.418L151.752 139.076L139.624 129.734C139.186 129.393 138.956 129.024 138.936 128.627C138.915 128.23 139.061 127.825 139.36 127.421C139.652 127.024 140 126.783 140.396 126.683C140.792 126.584 141.21 126.697 141.634 127.024L153.762 136.359L156.251 132.997C156.502 132.656 156.815 132.458 157.19 132.387C157.566 132.323 157.934 132.429 158.31 132.72C158.671 132.997 158.866 133.33 158.908 133.713L158.894 133.72Z" fill="white"/>
<path d="M123.824 148.838C123.47 147.178 123.553 145.603 124.068 144.127C124.582 142.652 125.514 141.382 126.835 140.325C128.191 139.247 129.645 138.615 131.202 138.438C132.76 138.261 134.297 138.544 135.813 139.282C137.322 140.02 138.685 141.176 139.888 142.744C141.105 144.326 141.891 145.965 142.246 147.653C142.6 149.341 142.517 150.952 141.988 152.47C141.46 153.988 140.514 155.286 139.165 156.371C137.837 157.436 136.397 158.039 134.846 158.188C133.296 158.337 131.766 158.024 130.257 157.251C128.748 156.478 127.392 155.3 126.175 153.718C124.958 152.136 124.172 150.512 123.817 148.852L123.824 148.838ZM134.374 142.262C133.358 141.68 132.35 141.424 131.362 141.488C130.375 141.552 129.45 141.928 128.602 142.609C127.802 143.248 127.266 144.042 127.002 144.979C126.738 145.915 126.759 146.958 127.079 148.1C127.399 149.242 128.004 150.405 128.915 151.583C129.86 152.817 130.841 153.725 131.842 154.321C132.844 154.917 133.824 155.18 134.777 155.123C135.73 155.066 136.606 154.712 137.406 154.073C138.706 153.03 139.36 151.704 139.374 150.093C139.387 148.483 138.685 146.752 137.26 144.901C136.355 143.723 135.389 142.843 134.374 142.262Z" fill="white"/>
<path d="M124.576 165.133C124.353 165.644 123.95 166.027 123.366 166.275L118.797 168.24C117.489 168.801 116.252 169.042 115.083 168.95C113.915 168.865 112.893 168.489 112.01 167.836C111.133 167.176 110.459 166.297 110 165.183C109.541 164.069 109.388 162.97 109.548 161.884C109.708 160.799 110.167 159.813 110.932 158.919C111.697 158.025 112.726 157.302 114.033 156.734L117.517 155.23L115.229 149.704C115.014 149.186 115 148.753 115.181 148.399C115.361 148.044 115.681 147.767 116.14 147.569C116.585 147.377 117.003 147.342 117.399 147.455C117.795 147.576 118.094 147.881 118.303 148.384L124.569 163.509C124.805 164.069 124.805 164.608 124.583 165.126L124.576 165.133ZM118.658 157.997L115.201 159.486C114.158 159.933 113.456 160.536 113.094 161.295C112.733 162.047 112.761 162.913 113.164 163.885C113.998 165.892 115.5 166.424 117.684 165.488L121.14 163.998L118.658 157.997Z" fill="white"/>
<path d="M38.3241 161.097C37.9486 161.139 37.594 161.033 37.2602 160.777L28.0112 153.691C27.6774 153.435 27.4757 153.116 27.4132 152.74C27.3506 152.357 27.4549 151.988 27.7191 151.619C27.9973 151.236 28.3311 151.023 28.7066 150.981C29.0821 150.938 29.4368 151.045 29.7706 151.3L33.0529 153.818L42.1837 141.425C42.5175 140.978 42.8721 140.744 43.2685 140.723C43.6579 140.702 44.0543 140.843 44.4577 141.156C44.8471 141.453 45.0905 141.801 45.1878 142.205C45.2852 142.61 45.1739 143.028 44.854 143.468L35.7233 155.861L39.0265 158.394C39.3603 158.649 39.562 158.968 39.6246 159.344C39.6871 159.72 39.5828 160.104 39.2977 160.487C39.0265 160.855 38.7066 161.061 38.3311 161.104L38.3241 161.097Z" fill="white"/>
<path d="M23.4282 125.357C25.0555 124.988 26.5993 125.073 28.0457 125.598C29.4922 126.123 30.737 127.066 31.7801 128.414C32.8441 129.79 33.463 131.273 33.6438 132.869C33.8176 134.458 33.5464 136.026 32.8302 137.572C32.1069 139.112 30.9804 140.502 29.4505 141.737C27.9067 142.978 26.3003 143.787 24.6382 144.156C22.9832 144.525 21.4046 144.439 19.9164 143.9C18.4282 143.361 17.1556 142.403 16.0916 141.027C15.0485 139.679 14.4505 138.211 14.3044 136.629C14.1584 135.047 14.4574 133.486 15.2154 131.947C15.9734 130.408 17.1208 129.017 18.6716 127.776C20.2154 126.534 21.8079 125.725 23.4352 125.364L23.4282 125.357ZM29.8955 136.104C30.4658 135.061 30.7161 134.04 30.6466 133.032C30.584 132.025 30.2085 131.089 29.5409 130.216C28.915 129.4 28.1361 128.861 27.2182 128.591C26.3003 128.322 25.278 128.35 24.1584 128.677C23.0388 129.003 21.9053 129.627 20.7509 130.556C19.5478 131.528 18.6507 132.522 18.0736 133.55C17.4964 134.579 17.2391 135.579 17.2947 136.551C17.3573 137.523 17.698 138.417 18.3309 139.232C19.3531 140.559 20.6535 141.226 22.2321 141.233C23.8107 141.24 25.5075 140.524 27.3156 139.069C28.4699 138.14 29.3323 137.161 29.8955 136.118V136.104Z" fill="white"/>
<path d="M7.45451 126.152C6.95382 125.925 6.5783 125.513 6.32795 124.917L4.38775 120.264C3.83143 118.93 3.59499 117.667 3.67844 116.475C3.76189 115.284 4.1235 114.241 4.77023 113.34C5.41001 112.446 6.27927 111.758 7.37106 111.283C8.46286 110.807 9.54075 110.651 10.6047 110.814C11.6687 110.971 12.6353 111.439 13.5115 112.219C14.3878 112.999 15.104 114.049 15.6604 115.383L17.1416 118.93L22.5588 116.582C23.0665 116.362 23.4907 116.341 23.8384 116.525C24.1861 116.71 24.4573 117.036 24.652 117.504C24.8398 117.958 24.8815 118.384 24.7633 118.788C24.6451 119.192 24.346 119.498 23.8523 119.71L9.0331 126.13C8.48372 126.372 7.95521 126.379 7.44756 126.152H7.45451ZM14.4434 120.101L12.9761 116.575C12.531 115.511 11.9399 114.794 11.2028 114.432C10.4587 114.071 9.61724 114.092 8.66453 114.503C6.69652 115.355 6.17496 116.894 7.10681 119.122L8.57412 122.647L14.4503 120.101H14.4434Z" fill="white"/>
<path d="M163.49 99.7916C167.085 99.7916 170 96.8188 170 93.1517C170 89.4845 167.085 86.5117 163.49 86.5117C159.896 86.5117 156.981 89.4845 156.981 93.1517C156.981 96.8188 159.896 99.7916 163.49 99.7916Z" fill="white"/>
<path d="M97.844 13.2799C101.439 13.2799 104.353 10.3071 104.353 6.63996C104.353 2.97281 101.439 0 97.844 0C94.2492 0 91.335 2.97281 91.335 6.63996C91.335 10.3071 94.2492 13.2799 97.844 13.2799Z" fill="white"/>
<path d="M6.50904 85.7799C10.1039 85.7799 13.0181 82.8071 13.0181 79.14C13.0181 75.4728 10.1039 72.5 6.50904 72.5C2.9142 72.5 0 75.4728 0 79.14C0 82.8071 2.9142 85.7799 6.50904 85.7799Z" fill="white"/>
<path d="M80.4661 170.001C84.0609 170.001 86.9751 167.028 86.9751 163.361C86.9751 159.694 84.0609 156.721 80.4661 156.721C76.8712 156.721 73.957 159.694 73.957 163.361C73.957 167.028 76.8712 170.001 80.4661 170.001Z" fill="white"/>
</g>
<defs>
<clipPath id="clip0_158_27">
<rect width="170" height="170" fill="white"/>
</clipPath>
</defs>
</svg>
